<svg width="280" height="86" viewBox="0 0 280 86" fill="none" xmlns="http://www.w3.org/2000/svg">
<path d="M172.061 19.0994C172.636 18.6946 173.251 18.3291 173.903 18.0031C176.313 16.7979 179.248 16.256 182.605 16.256C187.355 16.256 191.253 17.0744 193.906 19.0799C196.42 20.897 198.055 23.3549 198.761 26.3775C199.396 29.101 199.709 31.9853 199.709 35.024V84.64H189.565V36.048C189.565 34.724 189.524 33.3105 189.44 31.8069C189.37 30.5414 189.056 29.3576 188.496 28.2384L188.473 28.1926L188.453 28.1456C188.046 27.2152 187.336 26.4085 186.199 25.7399C185.191 25.147 183.514 24.736 180.941 24.736C178.584 24.736 176.843 25.1317 175.6 25.7858L175.582 25.7955L175.563 25.8049C174.257 26.458 173.479 27.1744 173.044 27.8802L173.025 27.9112L173.005 27.9414C172.421 28.8177 172.317 29.3191 172.317 29.52V84.64H162.173V0H172.061V19.0994Z" fill="#1D1B20"/>
<path d="M8.99638 7.40232C12.0298 5.74528 15.8432 4.992 20.304 4.992C26.1854 4.992 31.0386 6.53337 34.5845 9.87041C38.2553 13.1563 39.968 17.8079 39.968 23.504V33.696H29.952V24.912C29.952 20.9406 28.9988 18.2613 27.4104 16.5406L27.396 16.525L27.382 16.5092C25.8958 14.829 23.6501 13.856 20.304 13.856C16.5929 13.856 14.2929 14.924 12.9166 16.6756C11.4351 18.5612 10.528 21.6208 10.528 26.192C10.528 29.4443 11.1638 31.779 12.2294 33.3865C13.4159 35.087 14.8805 36.4008 16.6341 37.3536C18.6932 38.4236 20.8811 39.4146 23.1993 40.3258C27.114 41.8054 30.3716 43.4007 32.9267 45.1313C35.6118 46.8626 37.6189 49.1529 38.8917 51.986C40.1742 54.7557 40.736 58.4579 40.736 62.928C40.736 68.226 39.9025 72.6512 38.0617 76.0422C36.2545 79.3713 33.727 81.8308 30.4756 83.3087C27.3502 84.7294 23.7723 85.408 19.792 85.408C15.9692 85.408 12.5129 84.7247 9.47113 83.2989L9.4366 83.2827L9.40271 83.2653C6.29655 81.6621 3.96324 79.0314 2.35865 75.539L2.35446 75.5299L2.35036 75.5207C0.735769 71.9117 0 67.1112 0 61.264V55.168H10.144V61.648C10.144 66.0517 10.6041 69.3156 11.4198 71.5564C12.3307 73.8215 13.4875 75.1797 14.7683 75.9115C16.2241 76.7434 17.9227 77.184 19.92 77.184C23.0544 77.184 25.4795 76.2308 27.3647 74.4154C29.1512 72.6919 30.336 69.3004 30.336 63.568C30.336 59.7901 29.7514 57.2186 28.8164 55.6157L28.8005 55.5884L28.7854 55.5606C27.8882 53.9042 26.4942 52.5518 24.5034 51.5195C22.2843 50.3689 19.5404 49.1611 16.258 47.8987L16.2406 47.892L16.2232 47.8849C13.3862 46.7324 10.7953 45.3945 8.4575 43.8659L8.43534 43.8515L8.41358 43.8364C5.91723 42.1081 3.95269 39.8501 2.52757 37.0949L2.52127 37.0827L2.51515 37.0704C1.05456 34.1493 0.384 30.5747 0.384 26.448C0.384 21.929 1.00202 18.0234 2.32664 14.8065C3.68794 11.5005 5.91731 8.99802 8.99638 7.40232Z" fill="#1D1B20"/>
<path d="M87.658 17.28H97.7965L108.065 64.8674L118.112 17.28H127.229L137.718 64.8671L147.545 17.28H157.55L142.718 84.64H132.468L122.711 41.0105L113.284 84.64H103.035L87.658 17.28Z" fill="#1D1B20"/>
<path fill-rule="evenodd" clip-rule="evenodd" d="M232.381 83.1032C233.448 82.5027 234.409 81.7988 235.262 80.9955L235.319 84.64H245.304V31.44C245.304 28.626 244.899 26.0805 244.033 23.8458C243.143 21.2249 241.23 19.2919 238.566 18.0028C235.829 16.593 231.905 16 227.048 16C222.461 16 218.657 16.7381 215.893 18.469C213.204 20.0693 211.318 22.3583 210.309 25.284L210.302 25.3039L210.296 25.324C209.45 27.9545 209.048 30.942 209.048 34.256V42.144H218.552V34.768C218.552 30.7539 219.216 27.9828 220.303 26.2162C221.116 24.8955 223.018 23.84 227.048 23.84C228.586 23.84 230.027 24.0321 231.377 24.407L231.39 24.4107L231.403 24.4142C232.649 24.7421 233.538 25.331 234.179 26.1476L234.202 26.1762L234.225 26.2039C234.724 26.7931 235.16 27.9397 235.16 30.032V32.592C235.16 34.5015 234.722 35.9054 233.99 36.9426L233.967 36.9756L233.945 37.0095C233.214 38.1383 232.019 39.2682 230.232 40.3556C228.335 41.5106 225.959 42.8039 223.095 44.2362C218.522 46.4365 214.781 48.9426 211.938 51.7858C208.856 54.8676 207.384 58.9072 207.384 63.696V69.2C207.384 73.7712 208.115 77.525 209.928 80.084C211.584 82.4221 213.656 84.0461 216.175 84.7032L216.185 84.7058L216.195 84.7083C218.382 85.2551 220.508 85.536 222.568 85.536C226.045 85.536 229.312 84.7337 232.338 83.1262L232.36 83.115L232.381 83.1032ZM235.032 46.5265C234.489 46.9127 233.909 47.2823 233.295 47.6364L233.284 47.6428L233.273 47.649C231.133 48.8475 228.909 50.0451 226.602 51.2419C223.49 53.0475 221.169 54.8401 219.565 56.5965C218.212 58.0783 217.4 60.3065 217.4 63.568V68.176C217.4 71.4347 217.855 73.5059 218.509 74.6734C219.307 75.8508 220.159 76.468 221.036 76.7387C222.338 77.0411 223.529 77.184 224.616 77.184C228.48 77.184 230.924 75.9314 232.424 73.7224C234.1 71.1659 235.032 67.6252 235.032 62.928V46.5265Z" fill="#1D1B20"/>
<path fill-rule="evenodd" clip-rule="evenodd" d="M66.402 16.256C60.0604 16.256 55.0318 17.6061 51.9088 20.8332L51.897 20.8453L51.8855 20.8577C48.8948 24.0546 47.634 29.033 47.634 35.28V65.616C47.634 70.2682 48.1995 74.151 49.4536 77.1415L49.4641 77.1665L49.4753 77.1912C50.8557 80.248 53.0302 82.501 55.9839 83.825L56.0104 83.8369L56.0373 83.848C58.8398 85.0077 62.3259 85.536 66.402 85.536C70.5598 85.536 74.0792 84.9667 76.8321 83.6916C79.7923 82.3611 81.931 80.093 83.2224 77.0135C84.475 74.0265 85.042 70.1889 85.042 65.616V35.28C85.042 28.9738 83.7918 23.9712 80.7791 20.8455C77.7326 17.5988 72.7264 16.256 66.402 16.256ZM66.402 24.352C62.8501 24.352 60.833 25.2611 59.7519 26.5698L59.738 26.5867L59.7236 26.6032C58.5993 27.9052 57.778 30.596 57.778 35.28V66.384C57.778 71.1302 58.5904 73.9296 59.738 75.3333C60.8154 76.5679 62.841 77.44 66.402 77.44C69.9913 77.44 71.9383 76.555 72.9181 75.3575L72.935 75.3369L72.9524 75.3168C74.0696 74.0232 74.898 71.2602 74.898 66.384V35.28C74.898 30.7877 74.1283 28.0741 73.019 26.6566L73.0063 26.6404L72.994 26.624C72.0033 25.3031 70.0427 24.352 66.402 24.352Z" fill="#1D1B20"/>
<path d="M265.71 69.456V25.376H279.918V17.28H265.71V5.37601H257.434L256.13 17.5005L250.062 18.2919V25.376H255.694V70.48C255.694 72.8146 255.917 74.8839 256.407 76.6473L256.421 76.6963L256.437 76.7445C257.023 78.5034 257.878 80.0407 259.036 81.3035L259.094 81.3676L259.159 81.4263C260.401 82.5656 261.879 83.422 263.556 84.014L263.607 84.0317L263.658 84.0467C265.322 84.5362 267.137 84.768 269.086 84.768C271.023 84.768 272.843 84.68 274.543 84.501L274.595 84.4956L274.646 84.4875C276.263 84.2323 277.419 84.0677 278.139 83.9878L279.918 83.7901V75.6384L277.67 75.9194C277.051 75.9968 276.077 76.0792 274.721 76.1639C273.395 76.2468 272.114 76.288 270.878 76.288C268.291 76.288 267.276 75.576 266.859 74.8706C266.133 73.54 265.71 71.769 265.71 69.456Z" fill="#1D1B20"/>
</svg>
