<svg width="682" height="209" viewBox="0 0 682 209" fill="none" xmlns="http://www.w3.org/2000/svg">
<path d="M419.092 46.416C420.493 45.4322 421.991 44.544 423.579 43.7517C429.449 40.8228 436.598 39.5059 444.774 39.5059C456.344 39.5059 465.838 41.4948 472.3 46.3686C478.424 50.7846 482.406 56.7578 484.126 64.1035C485.672 70.7222 486.435 77.7317 486.435 85.1165V205.695H461.727V87.605C461.727 84.3874 461.627 80.9523 461.422 77.2982C461.252 74.2227 460.487 71.3458 459.123 68.6259L459.067 68.5146L459.018 68.4004C458.027 66.1393 456.298 64.1788 453.528 62.5539C451.073 61.1131 446.988 60.1142 440.721 60.1142C434.98 60.1142 430.74 61.0759 427.712 62.6655L427.668 62.6891L427.622 62.7119C424.441 64.2991 422.546 66.0401 421.486 67.7554L421.44 67.8307L421.391 67.9041C419.969 70.0337 419.716 71.2522 419.716 71.7405V205.695H395.008V0H419.092V46.416Z" fill="#1D1B20"/>
<path d="M21.9126 17.9895C29.3012 13.9625 38.5895 12.1318 49.4547 12.1318C63.7802 12.1318 75.6012 15.8777 84.238 23.9875C93.179 31.973 97.3506 43.2775 97.3506 57.1203V81.8892H72.9545V60.5421C72.9545 50.8906 70.6328 44.3793 66.7639 40.1976L66.7288 40.1597L66.6947 40.1213C63.0748 36.038 57.6049 33.6734 49.4547 33.6734C40.4156 33.6734 34.8134 36.2689 31.4612 40.5257C27.8526 45.1081 25.6432 52.5437 25.6432 63.6528C25.6432 71.5566 27.1918 77.2305 29.7873 81.1371C32.6773 85.2697 36.2446 88.4625 40.5159 90.7781C45.5313 93.3784 50.8604 95.7868 56.5069 98.0012C66.042 101.597 73.9765 105.474 80.2 109.68C86.7402 113.887 91.6289 119.453 94.7291 126.338C97.8529 133.069 99.2213 142.066 99.2213 152.93C99.2213 165.805 97.1911 176.559 92.7074 184.8C88.3056 192.891 82.1493 198.868 74.2299 202.46C66.6173 205.912 57.9025 207.561 48.2077 207.561C38.8964 207.561 30.4779 205.901 23.069 202.436L22.9849 202.396L22.9023 202.354C15.3366 198.458 9.65332 192.065 5.745 183.577L5.73479 183.555L5.72481 183.533C1.79212 174.762 0 163.096 0 148.886V134.071H24.7079V149.819C24.7079 160.521 25.8286 168.453 27.8154 173.899C30.0341 179.404 32.8517 182.704 35.9714 184.483C39.5173 186.504 43.6546 187.575 48.5194 187.575C56.1539 187.575 62.0608 185.259 66.6526 180.847C71.004 176.658 73.8898 168.416 73.8898 154.485C73.8898 145.304 72.4659 139.055 70.1885 135.159L70.1498 135.093L70.113 135.025C67.9277 131 64.5323 127.713 59.6833 125.204C54.2782 122.408 47.5948 119.473 39.5998 116.405L39.5575 116.389L39.5151 116.372C32.605 113.571 26.2943 110.319 20.6001 106.604L20.5461 106.569L20.4931 106.533C14.4127 102.333 9.62762 96.8451 6.15644 90.1493L6.14109 90.1197L6.12619 90.0898C2.56861 82.9909 0.935314 74.3037 0.935314 64.2749C0.935314 53.2927 2.44063 43.8012 5.66703 35.9834C8.98277 27.949 14.4129 21.8674 21.9126 17.9895Z" fill="#1D1B20"/>
<path d="M213.51 41.9946H238.204L263.215 157.643L287.687 41.9946H309.893L335.442 157.642L359.377 41.9946H383.747L347.62 205.695H322.654L298.889 99.6653L275.927 205.695H250.964L213.51 41.9946Z" fill="#1D1B20"/>
<path fill-rule="evenodd" clip-rule="evenodd" d="M566.014 201.96C568.613 200.501 570.954 198.79 573.032 196.838L573.171 205.695H597.491V76.4066C597.491 69.5679 596.505 63.3817 594.395 57.9509C592.228 51.5815 587.568 46.8839 581.079 43.7511C574.413 40.3249 564.855 38.8838 553.025 38.8838C541.852 38.8838 532.587 40.6775 525.854 44.884C519.305 48.7731 514.711 54.3359 512.253 61.4461L512.236 61.4944L512.222 61.5433C510.161 67.936 509.182 75.1963 509.182 83.2501V102.42H532.331V84.4944C532.331 74.7392 533.948 68.0048 536.596 63.7115C538.576 60.5019 543.209 57.9368 553.025 57.9368C556.771 57.9368 560.281 58.4037 563.569 59.3148L563.601 59.3237L563.632 59.3323C566.667 60.1291 568.833 61.5603 570.394 63.5448L570.45 63.6143L570.506 63.6816C571.721 65.1135 572.783 67.9 572.783 72.9848V79.2062C572.783 83.8467 571.716 87.2585 569.934 89.7792L569.877 89.8594L569.824 89.9418C568.043 92.685 565.133 95.4309 560.78 98.0736C556.16 100.88 550.372 104.023 543.396 107.504C532.258 112.852 523.146 118.942 516.221 125.852C508.714 133.341 505.129 143.158 505.129 154.796V168.172C505.129 179.281 506.909 188.404 511.325 194.623C515.359 200.305 520.406 204.252 526.541 205.849L526.566 205.855L526.59 205.861C531.917 207.19 537.095 207.872 542.113 207.872C550.582 207.872 558.539 205.923 565.91 202.016L565.963 201.989L566.014 201.96ZM572.472 113.07C571.149 114.009 569.736 114.907 568.241 115.768L568.214 115.783L568.187 115.798C562.975 118.711 557.558 121.621 551.938 124.53C544.359 128.918 538.705 133.274 534.798 137.543C531.503 141.144 529.525 146.559 529.525 154.485V165.684C529.525 173.603 530.633 178.636 532.226 181.474C534.17 184.335 536.245 185.835 538.381 186.493C541.553 187.228 544.453 187.575 547.101 187.575C556.513 187.575 562.466 184.531 566.119 179.163C570.201 172.95 572.472 164.345 572.472 152.93V113.07Z" fill="#1D1B20"/>
<path fill-rule="evenodd" clip-rule="evenodd" d="M161.737 39.5059C146.291 39.5059 134.042 42.7869 126.436 50.6295L126.407 50.6589L126.379 50.6891C119.094 58.4583 116.023 70.5569 116.023 85.7386V159.462C116.023 170.768 117.401 180.204 120.455 187.472L120.481 187.533L120.508 187.593C123.871 195.021 129.167 200.497 136.361 203.714L136.426 203.743L136.491 203.77C143.318 206.588 151.809 207.872 161.737 207.872C171.864 207.872 180.436 206.489 187.142 203.39C194.352 200.157 199.561 194.645 202.707 187.161C205.758 179.902 207.139 170.575 207.139 159.462V85.7386C207.139 70.4131 204.094 58.2556 196.755 50.6594C189.335 42.7692 177.141 39.5059 161.737 39.5059ZM161.737 59.181C153.086 59.181 148.172 61.3903 145.539 64.5708L145.505 64.6119L145.47 64.652C142.732 67.8161 140.731 74.3554 140.731 85.7386V161.329C140.731 172.863 142.71 179.666 145.505 183.077C148.13 186.078 153.063 188.197 161.737 188.197C170.479 188.197 175.222 186.046 177.608 183.136L177.649 183.086L177.692 183.037C180.413 179.894 182.431 173.179 182.431 161.329V85.7386C182.431 74.8213 180.556 68.2266 177.854 64.7817L177.823 64.7424L177.793 64.7025C175.38 61.4924 170.605 59.181 161.737 59.181Z" fill="#1D1B20"/>
<path d="M647.194 168.794V61.6696H681.801V41.9944H647.194V13.0649H627.036L623.86 42.5303L609.08 44.4536V61.6696H622.798V171.283C622.798 176.956 623.341 181.985 624.535 186.271L624.569 186.39L624.608 186.507C626.035 190.782 628.118 194.518 630.938 197.586L631.079 197.742L631.238 197.885C634.263 200.654 637.863 202.735 641.948 204.174L642.072 204.217L642.196 204.253C646.249 205.443 650.67 206.006 655.417 206.006C660.135 206.006 664.568 205.792 668.709 205.357L668.835 205.344L668.96 205.324C672.898 204.704 675.714 204.304 677.468 204.11L681.801 203.629V183.819L676.325 184.502C674.818 184.69 672.445 184.89 669.142 185.096C665.913 185.297 662.792 185.398 659.782 185.398C653.481 185.398 651.008 183.667 649.993 181.953C648.224 178.719 647.194 174.415 647.194 168.794Z" fill="#1D1B20"/>
<g clip-path="url(#clip0_256_110)">
<path d="M537.678 30.6113C537.472 30.989 537.75 31.0433 537.75 31.0433C540.754 32.599 544.088 32.2581 545.972 32.6571C546.181 32.7015 546.62 32.9108 546.103 32.2316C545.928 32.0014 539.934 26.4789 537.678 30.6113Z" fill="white"/>
<path d="M534.556 31.0136C534.852 30.7008 534.307 30.2478 534.307 30.2478C530.694 28.8635 528.702 29.1603 527.454 32.4796C527.379 32.6798 526.97 32.9641 527.888 33.1361C528.172 33.1893 531.435 34.3174 534.556 31.0136Z" fill="white"/>
<path d="M526.111 39.2037C526.407 38.8909 526.883 38.3577 524.612 36.5077C518.772 31.7514 516.177 38.9239 515.27 42.1839C515.075 42.8841 515.403 44.6046 516.92 44.5725C519.45 44.519 522.99 42.5075 526.111 39.2037Z" fill="white"/>
<path fill-rule="evenodd" clip-rule="evenodd" d="M548.761 33.8854C547.993 31.3596 547.209 30.1501 545.205 28.303C547.031 25.3567 548.206 24.7616 552.579 26.0491C553.853 26.4241 555.09 25.1273 553.246 24.4844C548.38 22.7871 546.572 23.5422 543.778 27.2497C539.428 25.4082 537.604 25.8625 535.445 29.3278C530.813 27.2219 529.4 27.9345 526.191 31.8765C525.485 32.7438 526.86 33.6362 527.513 32.7859C530.124 29.3881 531.462 29.1472 534.863 30.9187C534.391 32.9554 533.692 33.3343 533.117 33.7535C532.423 34.2582 531.205 34.3957 530.518 34.3894C529.268 34.3779 524.663 33.1487 523.821 32.9649C523.402 32.8733 521.728 32.7591 521.595 32.6906C521.463 32.622 518.387 29.4321 517.863 29.1967C517.511 29.0383 516.88 29.0782 516.469 29.5506C515.893 30.2119 515.222 33.4746 515.194 33.7601C515.148 34.2325 514.936 34.5428 514.71 34.7284C513.041 36.0978 511.907 37.991 511.792 39.4956C511.577 42.3167 512.406 44.1364 513.536 45.3404C513.634 45.4451 513.884 45.769 513.778 46.0669C513.641 46.4532 513.617 47.4985 513.494 48.0117C513.282 48.8952 512.65 49.0192 511.554 49.1838C511.305 49.2212 510.717 49.3236 510.415 49.3741C509.607 49.5091 509.151 51.2 510.677 50.945C510.677 50.945 512.837 50.5805 513.57 50.3807C514.536 50.1179 514.834 49.0056 514.866 48.9532C515.354 48.1451 516.776 33.5645 517.209 32.0509C517.435 31.2618 517.522 31.0231 517.904 31.4504C518.286 31.8778 519.023 32.5149 519.075 32.5869C519.133 32.6664 519.2 32.8493 519.082 32.8687C518.964 32.8881 518.846 32.908 518.179 33.0196C516.804 33.2492 517.4 34.8852 518.029 34.7802L520.424 34.3801C520.754 34.3031 520.933 34.3759 521.099 34.55C522.958 36.5 525.551 38.4889 525.617 38.8817C525.683 39.2743 521.207 43.8977 516.769 44.639C516.057 44.758 515.422 46.4803 516.77 46.3341C522.043 45.7622 525.932 41.2512 527.123 39.6797C527.648 38.9864 527.503 38.2437 527.194 37.9319C526.886 37.6201 524.634 35.4127 524.182 35.1248C523.73 34.837 523.94 34.6406 524.418 34.8435C524.896 35.0466 528.149 35.9134 529.838 36.1178C531.156 36.2772 533.026 36.0228 534.217 35.2652C535.421 34.4988 536.101 33.0127 536.31 32.0896C536.418 31.6127 536.526 31.7307 536.886 31.9127C540.232 33.6008 542.615 34.0641 544.886 33.8868C545.252 33.8582 546.651 34.3787 547.505 34.8219C548.485 35.3309 548.92 34.4065 548.761 33.8854ZM546.345 32.2299C546.608 32.6211 546.522 32.6488 546.057 32.4395C545.429 32.2577 545.068 32.2265 544.414 32.2699C541.612 32.0916 539.996 31.6126 537.023 30.0732C538.691 26.5247 543.073 27.3674 546.345 32.2299ZM514.098 43.1473C513.148 41.5701 513.049 38.8012 514.776 37.0594L514.098 43.1473Z" fill="#1D1B20"/>
</g>
<defs>
<clipPath id="clip0_256_110">
<rect width="42" height="31.08" fill="white" transform="translate(512.592 20.0532) rotate(5.51641)"/>
</clipPath>
</defs>
</svg>
