<svg width="810" height="165" viewBox="0 0 810 165" fill="none" xmlns="http://www.w3.org/2000/svg">
<path d="M25.0593 43.0708C17.4893 43.0708 11.4203 41.0477 6.85217 37.0017C2.28406 32.9557 0 27.8655 0 21.7312C0 15.4663 2.28406 10.3109 6.85217 6.26484C11.4203 2.08828 17.4893 0 25.0593 0C32.4988 0 38.5026 2.08828 43.0708 6.26484C47.6389 10.3109 49.9229 15.4663 49.9229 21.7312C49.9229 27.8655 47.6389 32.9557 43.0708 37.0017C38.5026 41.0477 32.4988 43.0708 25.0593 43.0708ZM46.5947 51.8807V162.298H3.13242V51.8807H46.5947Z" fill="white"/>
<path d="M143.556 51.0976C156.216 51.0976 166.07 55.3394 173.118 63.823C180.297 72.3067 183.886 83.7922 183.886 98.2796V162.298H140.619V103.761C140.619 98.5407 139.184 94.4294 136.312 91.4275C133.571 88.2951 129.852 86.7288 125.153 86.7288C120.324 86.7288 116.539 88.2951 113.798 91.4275C111.057 94.4294 109.687 98.5407 109.687 103.761V162.298H66.2243V51.8807H109.687V68.7174C113.08 63.4967 117.583 59.2549 123.195 55.992C128.938 52.729 135.725 51.0976 143.556 51.0976Z" fill="white"/>
<path d="M258.724 120.99L276.344 51.8807H322.547L285.741 162.298H231.511L194.705 51.8807H240.909L258.724 120.99Z" fill="white"/>
<path d="M377.399 164.06C369.176 164.06 361.802 162.69 355.276 159.949C348.75 157.078 343.595 153.162 339.81 148.203C336.025 143.112 333.937 137.304 333.545 130.778H351.948C352.47 136.13 354.95 140.502 359.388 143.895C363.956 147.289 369.894 148.986 377.203 148.986C383.99 148.986 389.341 147.485 393.257 144.483C397.172 141.481 399.13 137.696 399.13 133.128C399.13 128.429 397.042 124.97 392.865 122.752C388.689 120.402 382.228 118.118 373.483 115.899C365.522 113.811 358.996 111.723 353.906 109.635C348.946 107.416 344.639 104.218 340.985 100.042C337.461 95.7345 335.699 90.1223 335.699 83.2049C335.699 77.7231 337.33 72.6982 340.593 68.1301C343.856 63.562 348.489 59.9728 354.493 57.3624C360.497 54.6215 367.349 53.2511 375.05 53.2511C386.927 53.2511 396.52 56.253 403.829 62.2568C411.138 68.2606 415.053 76.4832 415.575 86.9246H397.76C397.368 81.3124 395.084 76.8095 390.908 73.4161C386.861 70.0226 381.38 68.3259 374.462 68.3259C368.067 68.3259 362.977 69.6963 359.192 72.4372C355.407 75.178 353.514 78.7673 353.514 83.2049C353.514 86.7288 354.624 89.6655 356.842 92.0148C359.192 94.2336 362.063 96.0608 365.457 97.4965C368.981 98.8017 373.81 100.303 379.944 101.999C387.645 104.088 393.909 106.176 398.739 108.264C403.568 110.222 407.679 113.224 411.072 117.27C414.596 121.316 416.424 126.602 416.554 133.128C416.554 139.001 414.923 144.287 411.66 148.986C408.397 153.684 403.763 157.404 397.76 160.145C391.886 162.755 385.099 164.06 377.399 164.06Z" fill="white"/>
<path d="M463.435 69.6963V132.932C463.435 138.153 464.544 141.872 466.763 144.091C468.982 146.18 472.832 147.224 478.314 147.224H491.431V162.298H475.377C465.458 162.298 458.018 160.014 453.059 155.446C448.099 150.878 445.619 143.373 445.619 132.932V69.6963H431.719V55.0131H445.619V27.996H463.435V55.0131H491.431V69.6963H463.435Z" fill="white"/>
<path d="M559.807 164.06C549.757 164.06 540.621 161.776 532.399 157.208C524.306 152.64 517.911 146.18 513.213 137.826C508.644 129.343 506.36 119.554 506.36 108.46C506.36 97.4965 508.71 87.8382 513.408 79.4851C518.237 71.0015 524.763 64.5409 532.986 60.1033C541.208 55.5352 550.41 53.2511 560.59 53.2511C570.771 53.2511 579.972 55.5352 588.195 60.1033C596.417 64.5409 602.878 70.9362 607.577 79.2893C612.406 87.6425 614.82 97.366 614.82 108.46C614.82 119.554 612.341 129.343 607.381 137.826C602.552 146.18 595.961 152.64 587.607 157.208C579.254 161.776 569.988 164.06 559.807 164.06ZM559.807 148.398C566.203 148.398 572.206 146.897 577.819 143.895C583.431 140.894 587.934 136.391 591.327 130.387C594.851 124.383 596.613 117.074 596.613 108.46C596.613 99.8458 594.916 92.5369 591.523 86.5331C588.13 80.5293 583.692 76.0917 578.21 73.2203C572.728 70.2184 566.79 68.7174 560.395 68.7174C553.869 68.7174 547.865 70.2184 542.383 73.2203C537.032 76.0917 532.725 80.5293 529.462 86.5331C526.199 92.5369 524.568 99.8458 524.568 108.46C524.568 117.205 526.134 124.579 529.266 130.583C532.529 136.587 536.836 141.089 542.187 144.091C547.539 146.963 553.412 148.398 559.807 148.398Z" fill="white"/>
<path d="M656.06 72.4372C659.193 66.3029 663.63 61.539 669.373 58.1455C675.246 54.7521 682.36 53.0553 690.713 53.0553V71.4583H686.014C666.045 71.4583 656.06 82.2912 656.06 103.957V162.298H638.245V55.0131H656.06V72.4372Z" fill="white"/>
<path d="M809.166 104.544C809.166 107.938 808.971 111.527 808.579 115.312H722.829C723.482 125.884 727.071 134.172 733.597 140.176C740.253 146.049 748.28 148.986 757.677 148.986C765.378 148.986 771.773 147.224 776.863 143.7C782.084 140.045 785.739 135.216 787.827 129.212H807.013C804.141 139.523 798.399 147.942 789.785 154.467C781.17 160.863 770.468 164.06 757.677 164.06C747.497 164.06 738.361 161.776 730.269 157.208C722.307 152.64 716.042 146.18 711.474 137.826C706.906 129.343 704.622 119.554 704.622 108.46C704.622 97.366 706.841 87.6425 711.278 79.2893C715.716 70.9362 721.916 64.5409 729.877 60.1033C737.969 55.5352 747.236 53.2511 757.677 53.2511C767.858 53.2511 776.863 55.4699 784.694 59.9075C792.525 64.3451 798.529 70.4794 802.706 78.3105C807.013 86.011 809.166 94.7557 809.166 104.544ZM790.763 100.825C790.763 94.0378 789.263 88.2298 786.261 83.4006C783.259 78.441 779.147 74.7212 773.927 72.2414C768.837 69.6311 763.159 68.3259 756.894 68.3259C747.888 68.3259 740.188 71.1973 733.793 76.94C727.528 82.6828 723.939 90.6444 723.025 100.825H790.763Z" fill="white"/>
</svg>
