<svg width="450" height="516" viewBox="0 0 450 516" fill="none" xmlns="http://www.w3.org/2000/svg">
<g clip-path="url(#clip0_931_23)">
<path d="M184.984 30H168.984V46H184.984V30Z" fill="black"/>
<path d="M264.984 30H248.984V46H264.984V30Z" fill="black"/>
<path d="M297.016 30H281.016V46H297.016V30Z" fill="black"/>
<path d="M169.008 45.9961H153.008V61.9961H169.008V45.9961Z" fill="black"/>
<path d="M184.984 45.9961H168.984V61.9961H184.984V45.9961Z" fill="black"/>
<path d="M217.016 45.9961H201.016V61.9961H217.016V45.9961Z" fill="black"/>
<path d="M232.992 45.9961H216.992V61.9961H232.992V45.9961Z" fill="black"/>
<path d="M249.008 45.9961H233.008V61.9961H249.008V45.9961Z" fill="black"/>
<path d="M264.984 45.9961H248.984V61.9961H264.984V45.9961Z" fill="black"/>
<path d="M184.984 62.002H168.984V78.002H184.984V62.002Z" fill="black"/>
<path d="M201 62.002H185V78.002H201V62.002Z" fill="black"/>
<path d="M217.016 62.002H201.016V78.002H217.016V62.002Z" fill="black"/>
<path d="M169.008 77.998H153.008V93.998H169.008V77.998Z" fill="black"/>
<path d="M184.984 77.998H168.984V93.998H184.984V77.998Z" fill="black"/>
<path d="M217.016 77.998H201.016V93.998H217.016V77.998Z" fill="black"/>
<path d="M249.008 77.998H233.008V93.998H249.008V77.998Z" fill="black"/>
<path d="M281 77.998H265V93.998H281V77.998Z" fill="black"/>
<path d="M297.016 77.998H281.016V93.998H297.016V77.998Z" fill="black"/>
<path d="M201 94.0039H185V110.004H201V94.0039Z" fill="black"/>
<path d="M232.992 94.0039H216.992V110.004H232.992V94.0039Z" fill="black"/>
<path d="M281 94.0039H265V110.004H281V94.0039Z" fill="black"/>
<path d="M297.016 94.0039H281.016V110.004H297.016V94.0039Z" fill="black"/>
<path d="M169.008 110H153.008V126H169.008V110Z" fill="black"/>
<path d="M201 110H185V126H201V110Z" fill="black"/>
<path d="M249.008 110H233.008V126H249.008V110Z" fill="black"/>
<path d="M264.984 110H248.984V126H264.984V110Z" fill="black"/>
<path d="M281 110H265V126H281V110Z" fill="black"/>
<path d="M169.008 125.996H153.008V141.996H169.008V125.996Z" fill="black"/>
<path d="M201 125.996H185V141.996H201V125.996Z" fill="black"/>
<path d="M232.992 125.996H216.992V141.996H232.992V125.996Z" fill="black"/>
<path d="M264.984 125.996H248.984V141.996H264.984V125.996Z" fill="black"/>
<path d="M297.016 125.996H281.016V141.996H297.016V125.996Z" fill="black"/>
<path d="M232.992 142.002H216.992V158.002H232.992V142.002Z" fill="black"/>
<path d="M297.016 142.002H281.016V158.002H297.016V142.002Z" fill="black"/>
<path d="M41 157.998H25V173.998H41V157.998Z" fill="black"/>
<path d="M57.0156 157.998H41.0156V173.998H57.0156V157.998Z" fill="black"/>
<path d="M72.9922 157.998H56.9922V173.998H72.9922V157.998Z" fill="black"/>
<path d="M89.0078 157.998H73.0078V173.998H89.0078V157.998Z" fill="black"/>
<path d="M104.984 157.998H88.9844V173.998H104.984V157.998Z" fill="black"/>
<path d="M137.016 157.998H121.016V173.998H137.016V157.998Z" fill="black"/>
<path d="M152.992 157.998H136.992V173.998H152.992V157.998Z" fill="black"/>
<path d="M169.008 157.998H153.008V173.998H169.008V157.998Z" fill="black"/>
<path d="M184.984 157.998H168.984V173.998H184.984V157.998Z" fill="black"/>
<path d="M201 157.998H185V173.998H201V157.998Z" fill="black"/>
<path d="M232.992 157.998H216.992V173.998H232.992V157.998Z" fill="black"/>
<path d="M249.008 157.998H233.008V173.998H249.008V157.998Z" fill="black"/>
<path d="M264.984 157.998H248.984V173.998H264.984V157.998Z" fill="black"/>
<path d="M281 157.998H265V173.998H281V157.998Z" fill="black"/>
<path d="M312.992 157.998H296.992V173.998H312.992V157.998Z" fill="black"/>
<path d="M344.984 157.998H328.984V173.998H344.984V157.998Z" fill="black"/>
<path d="M377.016 157.998H361.016V173.998H377.016V157.998Z" fill="black"/>
<path d="M409.008 157.998H393.008V173.998H409.008V157.998Z" fill="black"/>
<path d="M72.9922 174.004H56.9922V190.004H72.9922V174.004Z" fill="black"/>
<path d="M121 174.004H105V190.004H121V174.004Z" fill="black"/>
<path d="M169.008 174.004H153.008V190.004H169.008V174.004Z" fill="black"/>
<path d="M184.984 174.004H168.984V190.004H184.984V174.004Z" fill="black"/>
<path d="M264.984 174.004H248.984V190.004H264.984V174.004Z" fill="black"/>
<path d="M281 174.004H265V190.004H281V174.004Z" fill="black"/>
<path d="M297.016 174.004H281.016V190.004H297.016V174.004Z" fill="black"/>
<path d="M312.992 174.004H296.992V190.004H312.992V174.004Z" fill="black"/>
<path d="M344.984 174.004H328.984V190.004H344.984V174.004Z" fill="black"/>
<path d="M361 174.004H345V190.004H361V174.004Z" fill="black"/>
<path d="M424.984 174.004H408.984V190.004H424.984V174.004Z" fill="black"/>
<path d="M89.0078 190H73.0078V206H89.0078V190Z" fill="black"/>
<path d="M104.984 190H88.9844V206H104.984V190Z" fill="black"/>
<path d="M137.016 190H121.016V206H137.016V190Z" fill="black"/>
<path d="M169.008 190H153.008V206H169.008V190Z" fill="black"/>
<path d="M184.984 190H168.984V206H184.984V190Z" fill="black"/>
<path d="M217.016 190H201.016V206H217.016V190Z" fill="black"/>
<path d="M232.992 190H216.992V206H232.992V190Z" fill="black"/>
<path d="M249.008 190H233.008V206H249.008V190Z" fill="black"/>
<path d="M264.984 190H248.984V206H264.984V190Z" fill="black"/>
<path d="M281 190H265V206H281V190Z" fill="black"/>
<path d="M312.992 190H296.992V206H312.992V190Z" fill="black"/>
<path d="M329.008 190H313.008V206H329.008V190Z" fill="black"/>
<path d="M361 190H345V206H361V190Z" fill="black"/>
<path d="M392.992 190H376.992V206H392.992V190Z" fill="black"/>
<path d="M57.0156 205.996H41.0156V221.996H57.0156V205.996Z" fill="black"/>
<path d="M104.984 205.996H88.9844V221.996H104.984V205.996Z" fill="black"/>
<path d="M152.992 205.996H136.992V221.996H152.992V205.996Z" fill="black"/>
<path d="M169.008 205.996H153.008V221.996H169.008V205.996Z" fill="black"/>
<path d="M184.984 205.996H168.984V221.996H184.984V205.996Z" fill="black"/>
<path d="M201 205.996H185V221.996H201V205.996Z" fill="black"/>
<path d="M217.016 205.996H201.016V221.996H217.016V205.996Z" fill="black"/>
<path d="M297.016 205.996H281.016V221.996H297.016V205.996Z" fill="black"/>
<path d="M312.992 205.996H296.992V221.996H312.992V205.996Z" fill="black"/>
<path d="M72.9922 222.002H56.9922V238.002H72.9922V222.002Z" fill="black"/>
<path d="M89.0078 222.002H73.0078V238.002H89.0078V222.002Z" fill="black"/>
<path d="M104.984 222.002H88.9844V238.002H104.984V222.002Z" fill="black"/>
<path d="M121 222.002H105V238.002H121V222.002Z" fill="black"/>
<path d="M137.016 222.002H121.016V238.002H137.016V222.002Z" fill="black"/>
<path d="M169.008 222.002H153.008V238.002H169.008V222.002Z" fill="black"/>
<path d="M184.984 222.002H168.984V238.002H184.984V222.002Z" fill="black"/>
<path d="M217.016 222.002H201.016V238.002H217.016V222.002Z" fill="black"/>
<path d="M264.984 222.002H248.984V238.002H264.984V222.002Z" fill="black"/>
<path d="M281 222.002H265V238.002H281V222.002Z" fill="black"/>
<path d="M329.008 222.002H313.008V238.002H329.008V222.002Z" fill="black"/>
<path d="M344.984 222.002H328.984V238.002H344.984V222.002Z" fill="black"/>
<path d="M361 222.002H345V238.002H361V222.002Z" fill="black"/>
<path d="M377.016 222.002H361.016V238.002H377.016V222.002Z" fill="black"/>
<path d="M409.008 222.002H393.008V238.002H409.008V222.002Z" fill="black"/>
<path d="M424.984 222.002H408.984V238.002H424.984V222.002Z" fill="black"/>
<path d="M41 237.998H25V253.998H41V237.998Z" fill="black"/>
<path d="M57.0156 237.998H41.0156V253.998H57.0156V237.998Z" fill="black"/>
<path d="M104.984 237.998H88.9844V253.998H104.984V237.998Z" fill="black"/>
<path d="M184.984 237.998H168.984V253.998H184.984V237.998Z" fill="black"/>
<path d="M201 237.998H185V253.998H201V237.998Z" fill="black"/>
<path d="M232.992 237.998H216.992V253.998H232.992V237.998Z" fill="black"/>
<path d="M297.016 237.998H281.016V253.998H297.016V237.998Z" fill="black"/>
<path d="M312.992 237.998H296.992V253.998H312.992V237.998Z" fill="black"/>
<path d="M329.008 237.998H313.008V253.998H329.008V237.998Z" fill="black"/>
<path d="M344.984 237.998H328.984V253.998H344.984V237.998Z" fill="black"/>
<path d="M361 237.998H345V253.998H361V237.998Z" fill="black"/>
<path d="M41 254.004H25V270.004H41V254.004Z" fill="black"/>
<path d="M72.9922 254.004H56.9922V270.004H72.9922V254.004Z" fill="black"/>
<path d="M104.984 254.004H88.9844V270.004H104.984V254.004Z" fill="black"/>
<path d="M137.016 254.004H121.016V270.004H137.016V254.004Z" fill="black"/>
<path d="M152.992 254.004H136.992V270.004H152.992V254.004Z" fill="black"/>
<path d="M169.008 254.004H153.008V270.004H169.008V254.004Z" fill="black"/>
<path d="M184.984 254.004H168.984V270.004H184.984V254.004Z" fill="black"/>
<path d="M201 254.004H185V270.004H201V254.004Z" fill="black"/>
<path d="M249.008 254.004H233.008V270.004H249.008V254.004Z" fill="black"/>
<path d="M312.992 254.004H296.992V270.004H312.992V254.004Z" fill="black"/>
<path d="M329.008 254.004H313.008V270.004H329.008V254.004Z" fill="black"/>
<path d="M361 254.004H345V270.004H361V254.004Z" fill="black"/>
<path d="M392.992 254.004H376.992V270.004H392.992V254.004Z" fill="black"/>
<path d="M409.008 254.004H393.008V270.004H409.008V254.004Z" fill="black"/>
<path d="M424.984 254.004H408.984V270.004H424.984V254.004Z" fill="black"/>
<path d="M41 270H25V286H41V270Z" fill="black"/>
<path d="M121 270H105V286H121V270Z" fill="black"/>
<path d="M184.984 270H168.984V286H184.984V270Z" fill="black"/>
<path d="M201 270H185V286H201V270Z" fill="black"/>
<path d="M232.992 270H216.992V286H232.992V270Z" fill="black"/>
<path d="M264.984 270H248.984V286H264.984V270Z" fill="black"/>
<path d="M312.992 270H296.992V286H312.992V270Z" fill="black"/>
<path d="M409.008 270H393.008V286H409.008V270Z" fill="black"/>
<path d="M424.984 270H408.984V286H424.984V270Z" fill="black"/>
<path d="M41 285.996H25V301.996H41V285.996Z" fill="black"/>
<path d="M72.9922 285.996H56.9922V301.996H72.9922V285.996Z" fill="black"/>
<path d="M89.0078 285.996H73.0078V301.996H89.0078V285.996Z" fill="black"/>
<path d="M104.984 285.996H88.9844V301.996H104.984V285.996Z" fill="black"/>
<path d="M137.016 285.996H121.016V301.996H137.016V285.996Z" fill="black"/>
<path d="M152.992 285.996H136.992V301.996H152.992V285.996Z" fill="black"/>
<path d="M232.992 285.996H216.992V301.996H232.992V285.996Z" fill="black"/>
<path d="M249.008 285.996H233.008V301.996H249.008V285.996Z" fill="black"/>
<path d="M281 285.996H265V301.996H281V285.996Z" fill="black"/>
<path d="M297.016 285.996H281.016V301.996H297.016V285.996Z" fill="black"/>
<path d="M312.992 285.996H296.992V301.996H312.992V285.996Z" fill="black"/>
<path d="M329.008 285.996H313.008V301.996H329.008V285.996Z" fill="black"/>
<path d="M344.984 285.996H328.984V301.996H344.984V285.996Z" fill="black"/>
<path d="M361 285.996H345V301.996H361V285.996Z" fill="black"/>
<path d="M377.016 285.996H361.016V301.996H377.016V285.996Z" fill="black"/>
<path d="M424.984 285.996H408.984V301.996H424.984V285.996Z" fill="black"/>
<path d="M169.008 302.002H153.008V318.002H169.008V302.002Z" fill="black"/>
<path d="M297.016 302.002H281.016V318.002H297.016V302.002Z" fill="black"/>
<path d="M361 302.002H345V318.002H361V302.002Z" fill="black"/>
<path d="M424.984 302.002H408.984V318.002H424.984V302.002Z" fill="black"/>
<path d="M169.008 317.998H153.008V333.998H169.008V317.998Z" fill="black"/>
<path d="M184.984 317.998H168.984V333.998H184.984V317.998Z" fill="black"/>
<path d="M217.016 317.998H201.016V333.998H217.016V317.998Z" fill="black"/>
<path d="M232.992 317.998H216.992V333.998H232.992V317.998Z" fill="black"/>
<path d="M264.984 317.998H248.984V333.998H264.984V317.998Z" fill="black"/>
<path d="M297.016 317.998H281.016V333.998H297.016V317.998Z" fill="black"/>
<path d="M329.008 317.998H313.008V333.998H329.008V317.998Z" fill="black"/>
<path d="M361 317.998H345V333.998H361V317.998Z" fill="black"/>
<path d="M392.992 317.998H376.992V333.998H392.992V317.998Z" fill="black"/>
<path d="M409.008 317.998H393.008V333.998H409.008V317.998Z" fill="black"/>
<path d="M424.984 317.998H408.984V333.998H424.984V317.998Z" fill="black"/>
<path d="M217.016 334.004H201.016V350.004H217.016V334.004Z" fill="black"/>
<path d="M249.008 334.004H233.008V350.004H249.008V334.004Z" fill="black"/>
<path d="M297.016 334.004H281.016V350.004H297.016V334.004Z" fill="black"/>
<path d="M361 334.004H345V350.004H361V334.004Z" fill="black"/>
<path d="M377.016 334.004H361.016V350.004H377.016V334.004Z" fill="black"/>
<path d="M169.008 350H153.008V366H169.008V350Z" fill="black"/>
<path d="M184.984 350H168.984V366H184.984V350Z" fill="black"/>
<path d="M217.016 350H201.016V366H217.016V350Z" fill="black"/>
<path d="M232.992 350H216.992V366H232.992V350Z" fill="black"/>
<path d="M249.008 350H233.008V366H249.008V350Z" fill="black"/>
<path d="M297.016 350H281.016V366H297.016V350Z" fill="black"/>
<path d="M312.992 350H296.992V366H312.992V350Z" fill="black"/>
<path d="M329.008 350H313.008V366H329.008V350Z" fill="black"/>
<path d="M344.984 350H328.984V366H344.984V350Z" fill="black"/>
<path d="M361 350H345V366H361V350Z" fill="black"/>
<path d="M377.016 350H361.016V366H377.016V350Z" fill="black"/>
<path d="M169.008 365.996H153.008V381.996H169.008V365.996Z" fill="black"/>
<path d="M201 365.996H185V381.996H201V365.996Z" fill="black"/>
<path d="M232.992 365.996H216.992V381.996H232.992V365.996Z" fill="black"/>
<path d="M281 365.996H265V381.996H281V365.996Z" fill="black"/>
<path d="M297.016 365.996H281.016V381.996H297.016V365.996Z" fill="black"/>
<path d="M329.008 365.996H313.008V381.996H329.008V365.996Z" fill="black"/>
<path d="M361 365.996H345V381.996H361V365.996Z" fill="black"/>
<path d="M409.008 365.996H393.008V381.996H409.008V365.996Z" fill="black"/>
<path d="M424.984 365.996H408.984V381.996H424.984V365.996Z" fill="black"/>
<path d="M169.008 382.002H153.008V398.002H169.008V382.002Z" fill="black"/>
<path d="M201 382.002H185V398.002H201V382.002Z" fill="black"/>
<path d="M232.992 382.002H216.992V398.002H232.992V382.002Z" fill="black"/>
<path d="M249.008 382.002H233.008V398.002H249.008V382.002Z" fill="black"/>
<path d="M264.984 382.002H248.984V398.002H264.984V382.002Z" fill="black"/>
<path d="M361 382.002H345V398.002H361V382.002Z" fill="black"/>
<path d="M392.992 382.002H376.992V398.002H392.992V382.002Z" fill="black"/>
<path d="M424.984 382.002H408.984V398.002H424.984V382.002Z" fill="black"/>
<path d="M169.008 397.998H153.008V413.998H169.008V397.998Z" fill="black"/>
<path d="M184.984 397.998H168.984V413.998H184.984V397.998Z" fill="black"/>
<path d="M232.992 397.998H216.992V413.998H232.992V397.998Z" fill="black"/>
<path d="M249.008 397.998H233.008V413.998H249.008V397.998Z" fill="black"/>
<path d="M297.016 397.998H281.016V413.998H297.016V397.998Z" fill="black"/>
<path d="M312.992 397.998H296.992V413.998H312.992V397.998Z" fill="black"/>
<path d="M329.008 397.998H313.008V413.998H329.008V397.998Z" fill="black"/>
<path d="M344.984 397.998H328.984V413.998H344.984V397.998Z" fill="black"/>
<path d="M361 397.998H345V413.998H361V397.998Z" fill="black"/>
<path d="M377.016 397.998H361.016V413.998H377.016V397.998Z" fill="black"/>
<path d="M409.008 397.998H393.008V413.998H409.008V397.998Z" fill="black"/>
<path d="M169.008 414.004H153.008V430.004H169.008V414.004Z" fill="black"/>
<path d="M184.984 414.004H168.984V430.004H184.984V414.004Z" fill="black"/>
<path d="M201 414.004H185V430.004H201V414.004Z" fill="black"/>
<path d="M232.992 414.004H216.992V430.004H232.992V414.004Z" fill="black"/>
<path d="M249.008 414.004H233.008V430.004H249.008V414.004Z" fill="black"/>
<path d="M281 414.004H265V430.004H281V414.004Z" fill="black"/>
<path d="M392.992 414.004H376.992V430.004H392.992V414.004Z" fill="black"/>
<path d="M409.008 414.004H393.008V430.004H409.008V414.004Z" fill="black"/>
<path d="M424.984 414.004H408.984V430.004H424.984V414.004Z" fill="black"/>
<g clip-path="url(#clip1_931_23)">
<path d="M28.408 29.9805C26.536 29.9805 25 31.5165 25 33.3885V45.9965V61.9965V77.9965V93.9965V109.996V125.996V138.604C25 140.476 26.52 142.012 28.408 142.012H133.624C135.496 142.012 137.032 140.492 137.032 138.604V125.996V109.996V93.9965V77.9965V61.9965V45.9965V33.3885C137.032 31.5165 135.512 29.9805 133.624 29.9805H28.408ZM121.016 61.9965V77.9965V93.9965V109.996V124.044C121.016 125.132 120.136 125.996 119.064 125.996H42.968C41.88 125.996 41.016 125.116 41.016 124.044V109.996V93.9965V77.9965V61.9965V47.9485C41.016 46.8605 41.896 45.9965 42.968 45.9965H119.064C120.152 45.9965 121.016 46.8765 121.016 47.9485V61.9965Z" fill="black"/>
</g>
<path d="M105.008 93.9984V77.9984V65.3904C105.008 63.5184 103.488 61.9824 101.6 61.9824H60.4002C58.5282 61.9824 56.9922 63.5024 56.9922 65.3904V77.9984V93.9984V106.606C56.9922 108.478 58.5122 110.014 60.4002 110.014H101.6C103.472 110.014 105.008 108.494 105.008 106.606V93.9984Z" fill="black"/>
<g clip-path="url(#clip2_931_23)">
<path d="M316.416 29.9805C314.544 29.9805 313.008 31.5165 313.008 33.3885V45.9965V61.9965V77.9965V93.9965V109.996V125.996V138.604C313.008 140.476 314.528 142.012 316.416 142.012H421.632C423.504 142.012 425.04 140.492 425.04 138.604V125.996V109.996V93.9965V77.9965V61.9965V45.9965V33.3885C425.04 31.5165 423.52 29.9805 421.632 29.9805H316.416ZM409.024 61.9965V77.9965V93.9965V109.996V124.044C409.024 125.132 408.144 125.996 407.072 125.996H330.976C329.888 125.996 329.024 125.116 329.024 124.044V109.996V93.9965V77.9965V61.9965V47.9485C329.024 46.8605 329.904 45.9965 330.976 45.9965H407.072C408.16 45.9965 409.024 46.8765 409.024 47.9485V61.9965Z" fill="black"/>
</g>
<path d="M393.016 93.9984V77.9984V65.3904C393.016 63.5184 391.496 61.9824 389.608 61.9824H348.408C346.536 61.9824 345 63.5024 345 65.3904V77.9984V93.9984V106.606C345 108.478 346.52 110.014 348.408 110.014H389.608C391.48 110.014 393.016 108.494 393.016 106.606V93.9984Z" fill="black"/>
<g clip-path="url(#clip3_931_23)">
<path d="M28.408 317.979C26.536 317.979 25 319.515 25 321.387V333.995V349.995V365.995V381.995V397.995V413.995V426.603C25 428.475 26.52 430.011 28.408 430.011H133.624C135.496 430.011 137.032 428.491 137.032 426.603V413.995V397.995V381.995V365.995V349.995V333.995V321.387C137.032 319.515 135.512 317.979 133.624 317.979H28.408ZM121.016 349.995V365.995V381.995V397.995V412.043C121.016 413.131 120.136 413.995 119.064 413.995H42.968C41.88 413.995 41.016 413.115 41.016 412.043V397.995V381.995V365.995V349.995V335.947C41.016 334.859 41.896 333.995 42.968 333.995H119.064C120.152 333.995 121.016 334.875 121.016 335.947V349.995Z" fill="black"/>
</g>
<path d="M105.008 381.996V365.996V353.388C105.008 351.516 103.488 349.98 101.6 349.98H60.4002C58.5282 349.98 56.9922 351.5 56.9922 353.388V365.996V381.996V394.604C56.9922 396.476 58.5122 398.012 60.4002 398.012H101.6C103.472 398.012 105.008 396.492 105.008 394.604V381.996Z" fill="black"/>
<path d="M37.7114 481.571C37.2185 481.571 36.8295 481.429 36.5441 481.143C36.2588 480.832 36.1161 480.417 36.1161 479.898V456.631H27.3618C26.8949 456.631 26.5317 456.501 26.2724 456.242C26.013 455.983 25.8833 455.645 25.8833 455.23C25.8833 454.789 26.013 454.452 26.2724 454.219C26.5317 453.985 26.8949 453.869 27.3618 453.869H48.0999C48.5668 453.869 48.9299 453.985 49.1893 454.219C49.4487 454.452 49.5784 454.789 49.5784 455.23C49.5784 455.671 49.4487 456.021 49.1893 456.281C48.9299 456.514 48.5668 456.631 48.0999 456.631H39.3455V479.898C39.3455 480.417 39.2029 480.832 38.9175 481.143C38.6581 481.429 38.2561 481.571 37.7114 481.571ZM57.9199 481.649C55.9227 481.649 54.1977 481.26 52.7451 480.482C51.3185 479.678 50.2031 478.549 49.399 477.097C48.6209 475.644 48.2318 473.906 48.2318 471.883C48.2318 469.912 48.6209 468.2 49.399 466.747C50.1772 465.269 51.2407 464.114 52.5895 463.284C53.9643 462.454 55.5465 462.039 57.3363 462.039C58.6073 462.039 59.7486 462.26 60.7602 462.701C61.7719 463.116 62.6278 463.725 63.3282 464.529C64.0545 465.333 64.5992 466.306 64.9623 467.448C65.3514 468.589 65.546 469.873 65.546 471.299C65.546 471.714 65.4292 472.026 65.1958 472.233C64.9623 472.415 64.6251 472.506 64.1842 472.506H50.6441V470.443H63.4449L62.8224 470.949C62.8224 469.549 62.6149 468.368 62.1998 467.409C61.7848 466.423 61.1753 465.671 60.3712 465.152C59.593 464.633 58.6073 464.374 57.4141 464.374C56.0913 464.374 54.9629 464.685 54.0291 465.308C53.1213 465.904 52.4339 466.747 51.967 467.837C51.5001 468.9 51.2666 470.145 51.2666 471.572V471.805C51.2666 474.192 51.8373 476.007 52.9786 477.252C54.1458 478.497 55.793 479.12 57.9199 479.12C58.8019 479.12 59.6708 479.003 60.5268 478.77C61.4087 478.536 62.2647 478.147 63.0947 477.603C63.4579 477.369 63.7821 477.265 64.0674 477.291C64.3787 477.291 64.6251 477.382 64.8067 477.564C64.9883 477.719 65.105 477.927 65.1569 478.186C65.2347 478.42 65.2087 478.679 65.0791 478.964C64.9753 479.25 64.7548 479.496 64.4176 479.704C63.5616 480.326 62.55 480.806 61.3828 481.143C60.2155 481.48 59.0612 481.649 57.9199 481.649ZM58.6203 459.666C58.4387 459.925 58.2182 460.081 57.9588 460.133C57.6995 460.159 57.453 460.12 57.2196 460.016C56.9861 459.886 56.8175 459.705 56.7138 459.471C56.61 459.238 56.636 458.966 56.7916 458.654L60.0599 452.312C60.2415 451.949 60.4749 451.716 60.7602 451.612C61.0456 451.508 61.3309 451.495 61.6162 451.573C61.9275 451.625 62.1869 451.755 62.3944 451.962C62.6019 452.17 62.7186 452.416 62.7446 452.701C62.7964 452.987 62.7186 453.285 62.5111 453.596L58.6203 459.666ZM75.8654 481.649C73.9978 481.649 72.5712 481.078 71.5855 479.937C70.5999 478.796 70.107 477.162 70.107 475.035V455.191C70.107 454.673 70.2367 454.284 70.4961 454.024C70.7555 453.739 71.1446 453.596 71.6634 453.596C72.1562 453.596 72.5453 453.739 72.8306 454.024C73.1159 454.284 73.2586 454.673 73.2586 455.191V474.801C73.2586 476.202 73.531 477.252 74.0757 477.953C74.6463 478.627 75.4764 478.964 76.5658 478.964C76.7992 478.964 77.0068 478.951 77.1883 478.925C77.3699 478.899 77.5515 478.887 77.733 478.887C78.0184 478.861 78.2129 478.925 78.3167 479.081C78.4464 479.237 78.5112 479.548 78.5112 480.015C78.5112 480.482 78.4074 480.832 78.1999 481.065C77.9924 481.299 77.6552 481.454 77.1883 481.532C76.9808 481.558 76.7603 481.584 76.5269 481.61C76.2934 481.636 76.073 481.649 75.8654 481.649ZM89.9508 481.649C87.9535 481.649 86.2286 481.26 84.776 480.482C83.3494 479.678 82.234 478.549 81.4299 477.097C80.6518 475.644 80.2627 473.906 80.2627 471.883C80.2627 469.912 80.6518 468.2 81.4299 466.747C82.2081 465.269 83.2716 464.114 84.6204 463.284C85.9952 462.454 87.5774 462.039 89.3672 462.039C90.6382 462.039 91.7795 462.26 92.7911 462.701C93.8027 463.116 94.6587 463.725 95.3591 464.529C96.0854 465.333 96.6301 466.306 96.9932 467.448C97.3823 468.589 97.5768 469.873 97.5768 471.299C97.5768 471.714 97.4601 472.026 97.2267 472.233C96.9932 472.415 96.656 472.506 96.2151 472.506H82.675V470.443H95.4758L94.8533 470.949C94.8533 469.549 94.6458 468.368 94.2307 467.409C93.8157 466.423 93.2062 465.671 92.402 465.152C91.6239 464.633 90.6382 464.374 89.445 464.374C88.1221 464.374 86.9938 464.685 86.06 465.308C85.1521 465.904 84.4648 466.747 83.9979 467.837C83.531 468.9 83.2975 470.145 83.2975 471.572V471.805C83.2975 474.192 83.8682 476.007 85.0095 477.252C86.1767 478.497 87.8238 479.12 89.9508 479.12C90.8328 479.12 91.7017 479.003 92.5577 478.77C93.4396 478.536 94.2956 478.147 95.1256 477.603C95.4888 477.369 95.813 477.265 96.0983 477.291C96.4096 477.291 96.656 477.382 96.8376 477.564C97.0192 477.719 97.1359 477.927 97.1878 478.186C97.2656 478.42 97.2396 478.679 97.1099 478.964C97.0062 479.25 96.7857 479.496 96.4485 479.704C95.5925 480.326 94.5809 480.806 93.4137 481.143C92.2464 481.48 91.0921 481.649 89.9508 481.649ZM90.6512 459.666C90.4696 459.925 90.2491 460.081 89.9897 460.133C89.7304 460.159 89.4839 460.12 89.2505 460.016C89.017 459.886 88.8484 459.705 88.7447 459.471C88.6409 459.238 88.6669 458.966 88.8225 458.654L92.0908 452.312C92.2724 451.949 92.5058 451.716 92.7911 451.612C93.0765 451.508 93.3618 451.495 93.6471 451.573C93.9584 451.625 94.2178 451.755 94.4253 451.962C94.6328 452.17 94.7495 452.416 94.7755 452.701C94.8273 452.987 94.7495 453.285 94.542 453.596L90.6512 459.666ZM110.153 481.649C108.259 481.649 106.625 481.234 105.251 480.404C103.876 479.574 102.812 478.42 102.06 476.941C101.334 475.437 100.971 473.699 100.971 471.727C100.971 470.223 101.178 468.874 101.593 467.681C102.008 466.488 102.618 465.476 103.422 464.646C104.226 463.79 105.186 463.142 106.301 462.701C107.442 462.26 108.726 462.039 110.153 462.039C111.087 462.039 112.06 462.182 113.071 462.467C114.083 462.753 115.004 463.245 115.834 463.946C116.093 464.127 116.262 464.348 116.339 464.607C116.417 464.867 116.417 465.126 116.339 465.385C116.262 465.619 116.132 465.826 115.95 466.008C115.769 466.164 115.535 466.254 115.25 466.28C114.991 466.306 114.718 466.215 114.433 466.008C113.759 465.489 113.071 465.126 112.371 464.918C111.67 464.711 110.996 464.607 110.348 464.607C109.336 464.607 108.454 464.776 107.702 465.113C106.95 465.424 106.314 465.878 105.795 466.475C105.277 467.071 104.874 467.811 104.589 468.693C104.33 469.574 104.2 470.599 104.2 471.766C104.2 474.023 104.732 475.813 105.795 477.136C106.859 478.433 108.376 479.081 110.348 479.081C110.996 479.081 111.657 478.977 112.332 478.77C113.032 478.562 113.733 478.199 114.433 477.68C114.718 477.473 114.991 477.382 115.25 477.408C115.509 477.434 115.73 477.538 115.911 477.719C116.093 477.875 116.21 478.082 116.262 478.342C116.339 478.601 116.339 478.861 116.262 479.12C116.184 479.353 116.015 479.561 115.756 479.742C114.926 480.417 114.018 480.91 113.032 481.221C112.047 481.506 111.087 481.649 110.153 481.649ZM121.705 481.571C121.186 481.571 120.797 481.429 120.537 481.143C120.278 480.858 120.148 480.456 120.148 479.937V455.191C120.148 454.673 120.278 454.284 120.537 454.024C120.797 453.739 121.186 453.596 121.705 453.596C122.197 453.596 122.586 453.739 122.872 454.024C123.157 454.284 123.3 454.673 123.3 455.191V466.592H122.794C123.339 465.087 124.221 463.959 125.44 463.207C126.685 462.428 128.111 462.039 129.72 462.039C131.224 462.039 132.469 462.312 133.455 462.856C134.466 463.401 135.219 464.231 135.711 465.346C136.204 466.436 136.451 467.824 136.451 469.51V479.937C136.451 480.456 136.308 480.858 136.023 481.143C135.763 481.429 135.387 481.571 134.894 481.571C134.376 481.571 133.974 481.429 133.688 481.143C133.429 480.858 133.299 480.456 133.299 479.937V469.704C133.299 467.94 132.949 466.656 132.249 465.852C131.574 465.022 130.485 464.607 128.98 464.607C127.242 464.607 125.855 465.152 124.817 466.241C123.806 467.305 123.3 468.731 123.3 470.521V479.937C123.3 481.026 122.768 481.571 121.705 481.571ZM148.215 481.649C146.918 481.649 145.751 481.403 144.713 480.91C143.702 480.391 142.898 479.691 142.301 478.809C141.704 477.927 141.406 476.941 141.406 475.852C141.406 474.451 141.756 473.349 142.457 472.544C143.183 471.74 144.363 471.17 145.997 470.833C147.657 470.495 149.914 470.327 152.767 470.327H154.518V472.389H152.806C150.705 472.389 149.045 472.493 147.826 472.7C146.633 472.882 145.79 473.206 145.297 473.673C144.83 474.14 144.597 474.801 144.597 475.657C144.597 476.721 144.96 477.59 145.686 478.264C146.438 478.938 147.45 479.276 148.721 479.276C149.758 479.276 150.666 479.029 151.444 478.536C152.248 478.044 152.871 477.369 153.312 476.513C153.779 475.657 154.012 474.671 154.012 473.556V469.121C154.012 467.512 153.688 466.358 153.04 465.658C152.391 464.931 151.328 464.568 149.849 464.568C148.941 464.568 148.033 464.685 147.126 464.918C146.218 465.152 145.258 465.528 144.246 466.047C143.883 466.228 143.572 466.293 143.313 466.241C143.053 466.164 142.846 466.021 142.69 465.813C142.534 465.606 142.444 465.372 142.418 465.113C142.392 464.828 142.444 464.555 142.573 464.296C142.729 464.037 142.962 463.829 143.274 463.673C144.415 463.103 145.543 462.688 146.659 462.428C147.774 462.169 148.838 462.039 149.849 462.039C151.483 462.039 152.832 462.312 153.896 462.856C154.959 463.375 155.75 464.179 156.269 465.269C156.788 466.332 157.047 467.707 157.047 469.393V479.937C157.047 480.456 156.917 480.858 156.658 481.143C156.425 481.429 156.074 481.571 155.608 481.571C155.115 481.571 154.739 481.429 154.479 481.143C154.22 480.858 154.09 480.456 154.09 479.937V476.902H154.44C154.233 477.888 153.831 478.731 153.234 479.431C152.663 480.132 151.95 480.676 151.094 481.065C150.238 481.454 149.278 481.649 148.215 481.649ZM164.489 481.571C163.97 481.571 163.568 481.429 163.283 481.143C163.024 480.858 162.894 480.456 162.894 479.937V463.712C162.894 463.194 163.024 462.804 163.283 462.545C163.542 462.26 163.919 462.117 164.411 462.117C164.904 462.117 165.28 462.26 165.54 462.545C165.825 462.804 165.968 463.194 165.968 463.712V466.864H165.579C165.994 465.333 166.785 464.153 167.952 463.323C169.119 462.493 170.559 462.052 172.271 462C172.66 461.974 172.971 462.065 173.205 462.273C173.438 462.454 173.568 462.779 173.594 463.245C173.62 463.686 173.516 464.037 173.283 464.296C173.049 464.555 172.686 464.711 172.193 464.763L171.571 464.841C169.807 464.996 168.445 465.567 167.485 466.553C166.551 467.512 166.084 468.835 166.084 470.521V479.937C166.084 480.456 165.942 480.858 165.657 481.143C165.397 481.429 165.008 481.571 164.489 481.571ZM184.976 488.652C183.601 488.652 182.252 488.484 180.929 488.147C179.633 487.835 178.452 487.33 177.389 486.629C177.078 486.448 176.87 486.227 176.766 485.968C176.688 485.708 176.676 485.449 176.727 485.19C176.779 484.956 176.896 484.736 177.078 484.528C177.259 484.347 177.467 484.23 177.7 484.178C177.959 484.126 178.219 484.165 178.478 484.295C179.62 484.995 180.709 485.475 181.747 485.734C182.784 485.994 183.809 486.123 184.82 486.123C186.662 486.123 188.05 485.631 188.983 484.645C189.943 483.659 190.423 482.233 190.423 480.365V475.968H190.812C190.423 477.473 189.593 478.666 188.322 479.548C187.077 480.43 185.611 480.871 183.925 480.871C182.188 480.871 180.683 480.482 179.412 479.704C178.141 478.899 177.155 477.784 176.455 476.357C175.781 474.931 175.443 473.284 175.443 471.416C175.443 470.015 175.638 468.744 176.027 467.603C176.416 466.436 176.974 465.45 177.7 464.646C178.452 463.816 179.347 463.181 180.385 462.74C181.448 462.273 182.628 462.039 183.925 462.039C185.637 462.039 187.116 462.48 188.361 463.362C189.606 464.218 190.41 465.385 190.773 466.864L190.384 467.331V463.712C190.384 463.194 190.514 462.804 190.773 462.545C191.059 462.26 191.448 462.117 191.941 462.117C192.459 462.117 192.848 462.26 193.108 462.545C193.367 462.804 193.497 463.194 193.497 463.712V479.937C193.497 482.816 192.771 484.982 191.318 486.435C189.891 487.913 187.777 488.652 184.976 488.652ZM184.509 478.303C185.728 478.303 186.779 478.031 187.661 477.486C188.543 476.915 189.217 476.111 189.684 475.074C190.177 474.036 190.423 472.817 190.423 471.416C190.423 469.315 189.891 467.655 188.828 466.436C187.764 465.191 186.325 464.568 184.509 464.568C183.316 464.568 182.278 464.854 181.396 465.424C180.514 465.969 179.827 466.76 179.334 467.798C178.867 468.809 178.634 470.015 178.634 471.416C178.634 473.517 179.166 475.19 180.229 476.435C181.293 477.68 182.719 478.303 184.509 478.303ZM207.929 481.649C205.932 481.649 204.207 481.26 202.755 480.482C201.328 479.678 200.213 478.549 199.408 477.097C198.63 475.644 198.241 473.906 198.241 471.883C198.241 469.912 198.63 468.2 199.408 466.747C200.187 465.269 201.25 464.114 202.599 463.284C203.974 462.454 205.556 462.039 207.346 462.039C208.617 462.039 209.758 462.26 210.77 462.701C211.781 463.116 212.637 463.725 213.338 464.529C214.064 465.333 214.609 466.306 214.972 467.448C215.361 468.589 215.555 469.873 215.555 471.299C215.555 471.714 215.439 472.026 215.205 472.233C214.972 472.415 214.635 472.506 214.194 472.506H200.654V470.443H213.454L212.832 470.949C212.832 469.549 212.624 468.368 212.209 467.409C211.794 466.423 211.185 465.671 210.381 465.152C209.602 464.633 208.617 464.374 207.424 464.374C206.101 464.374 204.972 464.685 204.039 465.308C203.131 465.904 202.443 466.747 201.976 467.837C201.51 468.9 201.276 470.145 201.276 471.572V471.805C201.276 474.192 201.847 476.007 202.988 477.252C204.155 478.497 205.802 479.12 207.929 479.12C208.811 479.12 209.68 479.003 210.536 478.77C211.418 478.536 212.274 478.147 213.104 477.603C213.467 477.369 213.792 477.265 214.077 477.291C214.388 477.291 214.635 477.382 214.816 477.564C214.998 477.719 215.114 477.927 215.166 478.186C215.244 478.42 215.218 478.679 215.088 478.964C214.985 479.25 214.764 479.496 214.427 479.704C213.571 480.326 212.559 480.806 211.392 481.143C210.225 481.48 209.071 481.649 207.929 481.649ZM221.712 481.571C221.193 481.571 220.791 481.429 220.506 481.143C220.246 480.858 220.116 480.456 220.116 479.937V463.712C220.116 463.194 220.246 462.804 220.506 462.545C220.765 462.26 221.141 462.117 221.634 462.117C222.127 462.117 222.503 462.26 222.762 462.545C223.048 462.804 223.19 463.194 223.19 463.712V466.864H222.801C223.216 465.333 224.007 464.153 225.175 463.323C226.342 462.493 227.781 462.052 229.493 462C229.882 461.974 230.194 462.065 230.427 462.273C230.661 462.454 230.79 462.779 230.816 463.245C230.842 463.686 230.738 464.037 230.505 464.296C230.272 464.555 229.908 464.711 229.416 464.763L228.793 464.841C227.029 464.996 225.667 465.567 224.708 466.553C223.774 467.512 223.307 468.835 223.307 470.521V479.937C223.307 480.456 223.164 480.858 222.879 481.143C222.62 481.429 222.23 481.571 221.712 481.571ZM250.473 481.649C249.306 481.649 248.126 481.506 246.932 481.221C245.765 480.936 244.676 480.443 243.664 479.742C243.405 479.561 243.223 479.353 243.119 479.12C243.016 478.861 242.977 478.614 243.003 478.381C243.055 478.121 243.158 477.901 243.314 477.719C243.496 477.538 243.703 477.434 243.937 477.408C244.196 477.356 244.481 477.408 244.792 477.564C245.804 478.186 246.777 478.627 247.711 478.887C248.67 479.12 249.617 479.237 250.551 479.237C252.029 479.237 253.145 478.964 253.897 478.42C254.649 477.875 255.025 477.136 255.025 476.202C255.025 475.476 254.779 474.905 254.286 474.49C253.793 474.049 253.015 473.712 251.952 473.478L248.411 472.7C246.777 472.363 245.558 471.779 244.754 470.949C243.975 470.119 243.586 469.043 243.586 467.72C243.586 466.553 243.885 465.554 244.481 464.724C245.104 463.868 245.973 463.207 247.088 462.74C248.203 462.273 249.5 462.039 250.979 462.039C252.12 462.039 253.197 462.195 254.208 462.506C255.246 462.791 256.18 463.258 257.01 463.907C257.269 464.088 257.438 464.309 257.515 464.568C257.619 464.802 257.632 465.048 257.554 465.308C257.503 465.541 257.386 465.749 257.204 465.93C257.023 466.086 256.802 466.176 256.543 466.202C256.283 466.228 256.011 466.151 255.726 465.969C254.948 465.45 254.156 465.074 253.352 464.841C252.548 464.581 251.757 464.452 250.979 464.452C249.526 464.452 248.424 464.737 247.672 465.308C246.919 465.878 246.543 466.63 246.543 467.564C246.543 468.291 246.777 468.887 247.244 469.354C247.711 469.821 248.437 470.158 249.423 470.366L252.963 471.105C254.649 471.468 255.907 472.052 256.737 472.856C257.593 473.634 258.021 474.697 258.021 476.046C258.021 477.758 257.334 479.12 255.959 480.132C254.584 481.143 252.756 481.649 250.473 481.649ZM269.517 481.649C267.986 481.649 266.715 481.377 265.704 480.832C264.718 480.261 263.966 479.418 263.447 478.303C262.954 477.188 262.708 475.8 262.708 474.14V463.712C262.708 463.168 262.837 462.766 263.097 462.506C263.382 462.247 263.771 462.117 264.264 462.117C264.783 462.117 265.172 462.247 265.431 462.506C265.716 462.766 265.859 463.168 265.859 463.712V474.101C265.859 475.761 266.196 477.006 266.871 477.836C267.571 478.64 268.661 479.042 270.139 479.042C271.747 479.042 273.057 478.497 274.069 477.408C275.08 476.319 275.586 474.892 275.586 473.128V463.712C275.586 463.168 275.716 462.766 275.975 462.506C276.261 462.247 276.663 462.117 277.181 462.117C277.674 462.117 278.05 462.247 278.31 462.506C278.595 462.766 278.738 463.168 278.738 463.712V479.937C278.738 481.026 278.232 481.571 277.22 481.571C276.728 481.571 276.338 481.429 276.053 481.143C275.794 480.858 275.664 480.456 275.664 479.937V476.396L276.17 476.941C275.651 478.471 274.795 479.639 273.602 480.443C272.435 481.247 271.073 481.649 269.517 481.649ZM286.229 481.571C285.711 481.571 285.309 481.429 285.023 481.143C284.764 480.858 284.634 480.456 284.634 479.937V463.712C284.634 463.194 284.764 462.804 285.023 462.545C285.283 462.26 285.659 462.117 286.152 462.117C286.644 462.117 287.021 462.26 287.28 462.545C287.565 462.804 287.708 463.194 287.708 463.712V466.864H287.319C287.734 465.333 288.525 464.153 289.692 463.323C290.86 462.493 292.299 462.052 294.011 462C294.4 461.974 294.711 462.065 294.945 462.273C295.178 462.454 295.308 462.779 295.334 463.245C295.36 463.686 295.256 464.037 295.023 464.296C294.789 464.555 294.426 464.711 293.933 464.763L293.311 464.841C291.547 464.996 290.185 465.567 289.225 466.553C288.292 467.512 287.825 468.835 287.825 470.521V479.937C287.825 480.456 287.682 480.858 287.397 481.143C287.137 481.429 286.748 481.571 286.229 481.571ZM310.244 481.571C309.725 481.571 309.336 481.429 309.077 481.143C308.817 480.858 308.688 480.456 308.688 479.937V463.712C308.688 463.194 308.817 462.804 309.077 462.545C309.336 462.26 309.712 462.117 310.205 462.117C310.698 462.117 311.074 462.26 311.333 462.545C311.619 462.804 311.761 463.194 311.761 463.712V467.136L311.333 466.592C311.826 465.139 312.617 464.024 313.707 463.245C314.822 462.441 316.145 462.039 317.675 462.039C319.284 462.039 320.581 462.428 321.566 463.207C322.578 463.959 323.252 465.139 323.59 466.747H323.006C323.473 465.295 324.303 464.153 325.496 463.323C326.715 462.467 328.129 462.039 329.737 462.039C331.164 462.039 332.331 462.312 333.239 462.856C334.173 463.401 334.873 464.231 335.34 465.346C335.807 466.436 336.04 467.824 336.04 469.51V479.937C336.04 480.456 335.897 480.858 335.612 481.143C335.353 481.429 334.964 481.571 334.445 481.571C333.952 481.571 333.563 481.429 333.278 481.143C333.018 480.858 332.889 480.456 332.889 479.937V469.665C332.889 467.927 332.59 466.656 331.994 465.852C331.397 465.022 330.385 464.607 328.959 464.607C327.403 464.607 326.17 465.152 325.263 466.241C324.381 467.305 323.94 468.757 323.94 470.599V479.937C323.94 480.456 323.797 480.858 323.512 481.143C323.252 481.429 322.863 481.571 322.344 481.571C321.852 481.571 321.463 481.429 321.177 481.143C320.918 480.858 320.788 480.456 320.788 479.937V469.665C320.788 467.927 320.477 466.656 319.854 465.852C319.258 465.022 318.259 464.607 316.858 464.607C315.302 464.607 314.07 465.152 313.162 466.241C312.28 467.305 311.839 468.757 311.839 470.599V479.937C311.839 481.026 311.307 481.571 310.244 481.571ZM349.792 481.649C347.95 481.649 346.355 481.247 345.006 480.443C343.658 479.639 342.607 478.51 341.855 477.058C341.129 475.579 340.765 473.841 340.765 471.844C340.765 470.34 340.973 468.991 341.388 467.798C341.803 466.579 342.413 465.541 343.217 464.685C344.021 463.829 344.967 463.181 346.057 462.74C347.172 462.273 348.417 462.039 349.792 462.039C351.634 462.039 353.229 462.441 354.578 463.245C355.927 464.05 356.964 465.191 357.69 466.669C358.443 468.122 358.819 469.847 358.819 471.844C358.819 473.349 358.611 474.697 358.196 475.891C357.781 477.084 357.172 478.121 356.368 479.003C355.563 479.859 354.604 480.521 353.488 480.988C352.399 481.429 351.167 481.649 349.792 481.649ZM349.792 479.12C350.959 479.12 351.984 478.835 352.866 478.264C353.748 477.693 354.422 476.863 354.889 475.774C355.382 474.684 355.628 473.375 355.628 471.844C355.628 469.484 355.097 467.681 354.033 466.436C352.996 465.191 351.582 464.568 349.792 464.568C348.599 464.568 347.561 464.854 346.679 465.424C345.823 465.969 345.149 466.786 344.656 467.875C344.189 468.939 343.956 470.262 343.956 471.844C343.956 474.179 344.488 475.981 345.551 477.252C346.615 478.497 348.028 479.12 349.792 479.12ZM373.124 481.649C371.412 481.649 369.933 481.208 368.688 480.326C367.469 479.444 366.652 478.264 366.237 476.785L366.665 476.357V479.937C366.665 480.456 366.523 480.858 366.237 481.143C365.978 481.429 365.602 481.571 365.109 481.571C364.59 481.571 364.201 481.429 363.942 481.143C363.682 480.858 363.553 480.456 363.553 479.937V455.191C363.553 454.673 363.682 454.284 363.942 454.024C364.201 453.739 364.59 453.596 365.109 453.596C365.602 453.596 365.991 453.739 366.276 454.024C366.561 454.284 366.704 454.673 366.704 455.191V466.786H366.237C366.678 465.333 367.508 464.179 368.727 463.323C369.946 462.467 371.412 462.039 373.124 462.039C374.836 462.039 376.314 462.441 377.56 463.245C378.805 464.024 379.764 465.152 380.439 466.63C381.139 468.083 381.489 469.821 381.489 471.844C381.489 473.841 381.139 475.579 380.439 477.058C379.764 478.51 378.792 479.639 377.521 480.443C376.276 481.247 374.81 481.649 373.124 481.649ZM372.463 479.12C373.656 479.12 374.68 478.835 375.536 478.264C376.418 477.693 377.093 476.863 377.56 475.774C378.052 474.684 378.299 473.375 378.299 471.844C378.299 469.484 377.767 467.681 376.704 466.436C375.666 465.191 374.252 464.568 372.463 464.568C371.295 464.568 370.271 464.854 369.389 465.424C368.507 465.969 367.819 466.786 367.327 467.875C366.86 468.939 366.626 470.262 366.626 471.844C366.626 474.179 367.158 475.981 368.222 477.252C369.285 478.497 370.699 479.12 372.463 479.12ZM387.793 481.493C387.274 481.493 386.885 481.351 386.625 481.065C386.366 480.754 386.236 480.326 386.236 479.781V463.868C386.236 463.323 386.366 462.908 386.625 462.623C386.885 462.338 387.274 462.195 387.793 462.195C388.285 462.195 388.675 462.338 388.96 462.623C389.245 462.908 389.388 463.323 389.388 463.868V479.781C389.388 480.326 389.245 480.754 388.96 481.065C388.701 481.351 388.311 481.493 387.793 481.493ZM387.793 457.837C387.144 457.837 386.638 457.669 386.275 457.331C385.912 456.968 385.731 456.488 385.731 455.892C385.731 455.269 385.912 454.802 386.275 454.491C386.638 454.154 387.144 453.985 387.793 453.985C388.467 453.985 388.973 454.154 389.31 454.491C389.673 454.802 389.855 455.269 389.855 455.892C389.855 456.488 389.673 456.968 389.31 457.331C388.973 457.669 388.467 457.837 387.793 457.837ZM401.038 481.649C399.17 481.649 397.744 481.078 396.758 479.937C395.772 478.796 395.279 477.162 395.279 475.035V455.191C395.279 454.673 395.409 454.284 395.669 454.024C395.928 453.739 396.317 453.596 396.836 453.596C397.329 453.596 397.718 453.739 398.003 454.024C398.288 454.284 398.431 454.673 398.431 455.191V474.801C398.431 476.202 398.703 477.252 399.248 477.953C399.819 478.627 400.649 478.964 401.738 478.964C401.972 478.964 402.179 478.951 402.361 478.925C402.542 478.899 402.724 478.887 402.905 478.887C403.191 478.861 403.385 478.925 403.489 479.081C403.619 479.237 403.684 479.548 403.684 480.015C403.684 480.482 403.58 480.832 403.372 481.065C403.165 481.299 402.828 481.454 402.361 481.532C402.153 481.558 401.933 481.584 401.699 481.61C401.466 481.636 401.245 481.649 401.038 481.649ZM415.123 481.649C413.126 481.649 411.401 481.26 409.948 480.482C408.522 479.678 407.406 478.549 406.602 477.097C405.824 475.644 405.435 473.906 405.435 471.883C405.435 469.912 405.824 468.2 406.602 466.747C407.381 465.269 408.444 464.114 409.793 463.284C411.168 462.454 412.75 462.039 414.54 462.039C415.811 462.039 416.952 462.26 417.964 462.701C418.975 463.116 419.831 463.725 420.531 464.529C421.258 465.333 421.802 466.306 422.166 467.448C422.555 468.589 422.749 469.873 422.749 471.299C422.749 471.714 422.633 472.026 422.399 472.233C422.166 472.415 421.828 472.506 421.387 472.506H407.847V470.443H420.648L420.026 470.949C420.026 469.549 419.818 468.368 419.403 467.409C418.988 466.423 418.379 465.671 417.574 465.152C416.796 464.633 415.811 464.374 414.617 464.374C413.295 464.374 412.166 464.685 411.232 465.308C410.325 465.904 409.637 466.747 409.17 467.837C408.703 468.9 408.47 470.145 408.47 471.572V471.805C408.47 474.192 409.041 476.007 410.182 477.252C411.349 478.497 412.996 479.12 415.123 479.12C416.005 479.12 416.874 479.003 417.73 478.77C418.612 478.536 419.468 478.147 420.298 477.603C420.661 477.369 420.985 477.265 421.271 477.291C421.582 477.291 421.828 477.382 422.01 477.564C422.192 477.719 422.308 477.927 422.36 478.186C422.438 478.42 422.412 478.679 422.282 478.964C422.179 479.25 421.958 479.496 421.621 479.704C420.765 480.326 419.753 480.806 418.586 481.143C417.419 481.48 416.265 481.649 415.123 481.649Z" fill="black"/>
</g>
<defs>
<clipPath id="clip0_931_23">
<rect width="450" height="516" rx="22" fill="white"/>
</clipPath>
<clipPath id="clip1_931_23">
<rect width="112" height="112" fill="white" transform="translate(25 30)"/>
</clipPath>
<clipPath id="clip2_931_23">
<rect width="112" height="112" fill="white" transform="translate(313.008 30)"/>
</clipPath>
<clipPath id="clip3_931_23">
<rect width="112" height="112" fill="white" transform="translate(25 317.998)"/>
</clipPath>
</defs>
</svg>
