<svg width="33" height="62" viewBox="0 0 33 62" fill="none" xmlns="http://www.w3.org/2000/svg">
<path d="M2.93321 44.0486C3.45313 44.0486 3.95281 44.256 4.32061 44.6235L15.0192 55.3546L15.0192 1.97403C15.0192 1.45685 15.2247 0.960848 15.5904 0.595143C15.9561 0.229438 16.4521 0.0239868 16.9693 0.0239868C17.4865 0.0239868 17.9825 0.229438 18.3482 0.595142C18.7139 0.960848 18.9193 1.45685 18.9193 1.97403L18.9193 55.3546L29.6208 44.6206C29.802 44.4381 30.0181 44.2926 30.2554 44.1938C30.4931 44.0948 30.7479 44.0438 31.0054 44.0438C31.2628 44.0438 31.5177 44.0948 31.7553 44.1938C31.9929 44.2928 32.2147 44.444 32.396 44.6267C32.5782 44.8078 32.7229 45.023 32.8217 45.2602C32.9207 45.4978 32.9717 45.7527 32.9717 46.0101C32.9717 46.2675 32.9207 46.5224 32.8217 46.76C32.7227 46.9977 32.5741 47.2169 32.3913 47.3981L18.3595 61.4297C18.1763 61.6027 17.9612 61.7321 17.7262 61.8233C17.2514 62.0183 16.6951 62.0322 16.2204 61.8372C15.9854 61.746 15.7585 61.5991 15.5753 61.4262L1.5462 47.3971C1.36405 47.215 1.21957 46.9987 1.12099 46.7608C1.02242 46.5228 0.97168 46.2677 0.97168 46.0101C0.97168 45.4899 1.17834 44.991 1.5462 44.6231C1.72834 44.4409 1.94458 44.2965 2.18257 44.1979C2.42055 44.0993 2.67562 44.0486 2.93321 44.0486Z" fill="#1D1B20"/>
</svg>
