<svg width="24" height="24" viewBox="0 0 24 24" fill="none" xmlns="http://www.w3.org/2000/svg">
<path d="M13.464 1.47115C13.464 1.86109 13.3084 2.23585 13.0328 2.5117L4.98444 10.5357H22.5199C22.9078 10.5357 23.2798 10.6898 23.5541 10.964C23.8283 11.2383 23.9824 11.6103 23.9824 11.9982C23.9824 12.3861 23.8283 12.7581 23.5541 13.0324C23.2798 13.3067 22.9078 13.4607 22.5199 13.4607H4.98444L13.035 21.4869C13.1718 21.6227 13.2809 21.7848 13.3551 21.9628C13.4293 22.141 13.4676 22.3322 13.4676 22.5253C13.4676 22.7183 13.4293 22.9095 13.3551 23.0877C13.2808 23.2659 13.1674 23.4323 13.0304 23.5682C12.8946 23.7049 12.7332 23.8134 12.5553 23.8875C12.3771 23.9618 12.1859 24 11.9928 24C11.7998 24 11.6086 23.9618 11.4304 23.8875C11.2522 23.8133 11.0878 23.7018 10.9518 23.5647L0.428104 13.0409C0.298401 12.9034 0.201309 12.7421 0.132965 12.5659C-0.0133114 12.2098 -0.0237312 11.7926 0.122545 11.4365C0.190887 11.2603 0.301073 11.0901 0.430777 10.9527L10.9526 0.43089C11.0892 0.294281 11.2514 0.185917 11.4298 0.111985C11.6083 0.0380528 11.7996 0 11.9928 0C12.383 0 12.7572 0.154996 13.0331 0.43089C13.1697 0.567499 13.2781 0.729677 13.352 0.908165C13.4259 1.08665 13.464 1.27795 13.464 1.47115Z" fill="#1D1B20"/>
</svg>
