<svg width="32" height="32" viewBox="0 0 32 32" fill="none" xmlns="http://www.w3.org/2000/svg">
<g clip-path="url(#clip0_746_136)">
<path fill-rule="evenodd" clip-rule="evenodd" d="M23.9204 0.0605607C23.5815 0.0608587 23.2504 0.161561 22.9687 0.34995C22.6871 0.538338 22.4676 0.805962 22.338 1.11902C22.2084 1.43208 22.1744 1.77653 22.2404 2.10887C22.3065 2.44121 22.4695 2.74653 22.7089 2.98628L24.6792 4.95885L20.9009 8.73713C16.8762 5.30198 11.7557 3.41948 6.46435 3.4297C4.79863 3.42943 3.13808 3.61496 1.5135 3.98285C1.08285 4.09534 0.712829 4.37091 0.481701 4.7513C0.250572 5.13169 0.176454 5.58706 0.275021 6.02111C0.373587 6.45516 0.637111 6.83385 1.00986 7.07711C1.38261 7.32036 1.83536 7.4091 2.27235 7.32456C2.89712 7.18285 3.53254 7.07313 4.17864 6.99542V24.2663H1.89293C1.55383 24.2662 1.22235 24.3668 0.940392 24.5551C0.658439 24.7435 0.438684 25.0113 0.308925 25.3246V25.3291C0.215248 25.5548 0.17158 25.7981 0.180925 26.0423C0.196371 26.4938 0.389407 26.9209 0.718068 27.2308L4.88721 31.4C5.12235 31.6507 5.42742 31.8249 5.7628 31.9C6.09819 31.9751 6.44841 31.9477 6.76802 31.8213C7.08762 31.6949 7.36185 31.4753 7.55511 31.1911C7.74836 30.9069 7.85173 30.5711 7.85178 30.2274V28.0011H25.1844C25.1084 28.6419 24.9985 29.2782 24.8552 29.9074C24.8054 30.127 24.7993 30.3542 24.8373 30.5761C24.8753 30.7981 24.9566 31.0103 25.0766 31.2008C25.1967 31.3913 25.353 31.5563 25.5368 31.6864C25.7206 31.8164 25.9282 31.909 26.1478 31.9588C26.3674 32.0087 26.5946 32.0148 26.8165 31.9768C27.0384 31.9388 27.2507 31.8575 27.4412 31.7374C27.6317 31.6174 27.7967 31.461 27.9267 31.2772C28.0568 31.0935 28.1494 30.8858 28.1992 30.6663C28.5663 29.0416 28.7511 27.3811 28.7501 25.7154C28.76 20.3668 26.836 15.1949 23.3329 11.1531L27.1044 7.3817L29.0769 9.35428C29.3167 9.59372 29.622 9.75675 29.9543 9.82277C30.2867 9.88879 30.6311 9.85484 30.9442 9.72522C31.2572 9.59559 31.5249 9.3761 31.7133 9.09446C31.9016 8.81283 32.0023 8.48168 32.0026 8.14285V1.77485C32.0035 1.54947 31.9598 1.32614 31.874 1.11775C31.7882 0.90935 31.6619 0.720008 31.5026 0.560641C31.3432 0.401274 31.1539 0.275035 30.9455 0.189206C30.7371 0.103376 30.5137 0.0596537 30.2884 0.0605607H23.9204ZM18.4712 11.1691C15.3982 8.62374 11.593 7.12552 7.6095 6.89256V22.0308L18.4712 11.1691ZM20.9055 13.5851C23.5146 16.6783 25.0526 20.5329 25.2895 24.5726H9.91578L20.9055 13.5851Z" fill="#203649"/>
</g>
<defs>
<clipPath id="clip0_746_136">
<rect width="32" height="32" fill="white"/>
</clipPath>
</defs>
</svg>
