<svg width="20" height="15" viewBox="0 0 20 15" fill="none" xmlns="http://www.w3.org/2000/svg">
<path d="M19.5971 0.699424L19.5938 0.696072C19.4785 0.579791 19.3413 0.487496 19.1901 0.424513C19.0389 0.361529 18.8768 0.329102 18.713 0.329102C18.5492 0.329102 18.387 0.361529 18.2359 0.424513C18.0847 0.487496 17.9475 0.579791 17.8321 0.696072L17.8316 0.69659L6.8533 11.6897L2.15516 6.97652C2.03527 6.86105 1.89389 6.77023 1.73902 6.7092C1.58355 6.64793 1.41754 6.61789 1.25046 6.62078C1.08338 6.62367 0.918508 6.65944 0.765254 6.72605C0.612001 6.79265 0.473367 6.8888 0.357268 7.00898C0.24117 7.12917 0.149882 7.27105 0.088614 7.42651C0.0273464 7.58198 -0.0027002 7.74799 0.000190408 7.91507C0.00308103 8.08215 0.0388521 8.24702 0.105461 8.40027C0.17207 8.55353 0.268212 8.69216 0.388398 8.80826L0.391045 8.81082L5.9726 14.3924C6.08793 14.5087 6.22514 14.601 6.37632 14.664C6.5275 14.727 6.68966 14.7594 6.85344 14.7594C7.01721 14.7594 7.17937 14.727 7.33054 14.664C7.48172 14.601 7.61894 14.5087 7.73427 14.3924L7.73488 14.3918L19.5975 2.52923L19.6006 2.52632C19.7265 2.41015 19.827 2.26915 19.8958 2.11221C19.9645 1.95528 20 1.7858 20 1.61447C20 1.44314 19.9645 1.27367 19.8958 1.11673C19.827 0.959796 19.7265 0.818798 19.6006 0.702625L19.5971 0.699424Z" fill="#22C55E"/>
</svg>
