<svg width="40" height="40" viewBox="0 0 40 40" fill="none" xmlns="http://www.w3.org/2000/svg">
<path d="M10.6739 9.14527L4.63972 15.2136C-1.05259 20.8718 -1.05259 30.0684 4.63972 35.7265C10.332 41.3846 19.4944 41.4188 25.1525 35.7265L35.409 25.4701C37.1184 23.8119 37.1184 21.094 35.409 19.4188C35.238 19.2137 35.0158 19.0256 34.7765 18.8718L35.409 18.2051C37.1184 16.547 37.1184 13.829 35.409 12.1538C35.1696 11.8803 34.8449 11.641 34.5543 11.453C35.2038 9.88031 34.9132 7.99997 33.6312 6.71792C32.144 5.23074 29.8363 5.07689 28.1611 6.23928C27.8133 5.70352 27.3505 5.25193 26.8064 4.91729C26.2623 4.58265 25.6505 4.37337 25.0154 4.30462C24.3804 4.23588 23.7379 4.3094 23.1348 4.51986C22.5317 4.73031 21.983 5.07241 21.5286 5.52133L17.238 9.81194C17.0842 9.57262 16.8961 9.3504 16.691 9.14527C15.8843 8.36409 14.8054 7.92732 13.6825 7.92732C12.5595 7.92732 11.4806 8.36409 10.6739 9.14527ZM13.0842 11.5726C13.426 11.2307 13.956 11.2307 14.2978 11.5726C14.6397 11.9145 14.6397 12.4444 14.2978 12.7863L8.86194 18.2222C9.82229 19.1837 10.3617 20.4872 10.3617 21.8461C10.3617 23.2051 9.82229 24.5085 8.86194 25.4701L11.2722 27.8803C12.4471 26.7043 13.2539 25.2114 13.5939 23.5842C13.9339 21.957 13.7924 20.266 13.1867 18.7179L23.956 7.94869C24.2978 7.60681 24.8278 7.60681 25.1525 7.94869C25.4773 8.29057 25.5115 8.82048 25.1525 9.16236L17.3064 17.0256L19.7166 19.4359L29.9902 9.16236C30.332 8.82048 30.862 8.82048 31.2038 9.16236C31.5457 9.50424 31.5457 10.0342 31.2038 10.376L20.9303 20.6495L23.3406 23.0598L31.8021 14.5983C32.144 14.2564 32.6739 14.2564 33.0158 14.5983C33.3577 14.9401 33.3577 15.4701 33.0158 15.8119L23.3406 25.4701L25.7508 27.8974L31.8021 21.8461C32.144 21.5043 32.6739 21.5043 33.0158 21.8461C33.3577 22.188 33.3577 22.7179 33.0158 23.0598L22.7594 33.3333C18.4175 37.6752 11.3919 37.6752 7.04997 33.3333C2.70809 28.9914 2.70809 21.9658 7.04997 17.6239L13.0842 11.5726ZM37.9731 29.7436C37.9731 35.4017 33.3748 40 27.7167 40V37.4359C31.9902 37.4359 35.409 34.0171 35.409 29.7436H37.9731ZM0.366211 12.6495C0.366211 6.99142 4.9645 2.39313 10.6226 2.39313V4.95723C6.34912 4.95723 2.93031 8.37604 2.93031 12.6495H0.366211Z" fill="white"/>
</svg>
