<svg width="32" height="32" viewBox="0 0 32 32" fill="none" xmlns="http://www.w3.org/2000/svg">
<path d="M22.8571 28.0569L25.6 30.6657C26.3619 31.4027 27.4286 30.8131 27.4286 29.9435V23.6351L31.6952 18.6237C31.865 18.4047 31.9684 18.1443 31.9938 17.8717C32.0193 17.5991 31.9657 17.325 31.8391 17.0802C31.7126 16.8353 31.518 16.6294 31.2773 16.4855C31.0366 16.3416 30.7592 16.2654 30.4762 16.2654H19.8095C18.5905 16.2654 17.8286 17.7393 18.5905 18.6237L22.8571 23.6351V28.0569ZM19.8095 26.5829H0V22.1611C0 18.1815 8.07619 16.2654 12.1905 16.2654C13.1048 16.2654 14.1714 16.4128 15.3905 16.5602C15.0857 17.4445 15.2381 18.4763 15.5429 19.3607C14.4762 19.2133 13.2571 19.0659 12.1905 19.0659C7.61905 19.0659 2.89524 21.2768 2.89524 22.1611V23.7825H19.0476L19.8095 24.6668V26.5829ZM12.1905 3C8.83809 3 6.09524 5.65308 6.09524 8.89573C6.09524 12.1384 8.83809 14.7915 12.1905 14.7915C15.5429 14.7915 18.2857 12.1384 18.2857 8.89573C18.2857 5.65308 15.5429 3 12.1905 3ZM12.1905 11.8436C10.5143 11.8436 9.14286 10.5171 9.14286 8.89573C9.14286 7.2744 10.5143 5.94787 12.1905 5.94787C13.8667 5.94787 15.2381 7.2744 15.2381 8.89573C15.2381 10.5171 13.8667 11.8436 12.1905 11.8436Z" fill="#203649"/>
</svg>
