<svg width="32" height="32" viewBox="0 0 32 32" fill="none" xmlns="http://www.w3.org/2000/svg">
<path d="M7.66667 0C6.18933 0 5 1.18933 5 2.66667V29.3333C5 30.8107 6.18933 32 7.66667 32H23.6667C25.144 32 26.3333 30.8107 26.3333 29.3333V2.66667C26.3333 1.18933 25.144 0 23.6667 0H7.66667ZM9 2.66667H22.3333C23.072 2.66667 23.6667 3.26133 23.6667 4V22.6667C23.6667 23.4053 23.072 24 22.3333 24H9C8.64638 24 8.30724 23.8595 8.05719 23.6095C7.80714 23.3594 7.66667 23.0203 7.66667 22.6667V4C7.66667 3.26133 8.26133 2.66667 9 2.66667ZM14.3333 26.6667H17C17.3536 26.6667 17.6928 26.8071 17.9428 27.0572C18.1929 27.3072 18.3333 27.6464 18.3333 28C18.3333 28.3536 18.1929 28.6928 17.9428 28.9428C17.6928 29.1929 17.3536 29.3333 17 29.3333H14.3333C13.9797 29.3333 13.6406 29.1929 13.3905 28.9428C13.1405 28.6928 13 28.3536 13 28C13 27.6464 13.1405 27.3072 13.3905 27.0572C13.6406 26.8071 13.9797 26.6667 14.3333 26.6667Z" fill="#203649"/>
</svg>
