<svg width="40" height="40" viewBox="0 0 40 40" fill="none" xmlns="http://www.w3.org/2000/svg">
<path d="M30.5612 6.26667C28.9922 4.53228 28.1273 2.30533 28.1275 0H21.0332V27.5556C20.9796 29.0471 20.3295 30.4602 19.2201 31.4967C18.1107 32.5332 16.6287 33.112 15.0867 33.1111C11.8265 33.1111 9.11735 30.5333 9.11735 27.3333C9.11735 23.5111 12.9286 20.6444 16.8546 21.8222V14.8C8.93367 13.7778 2 19.7333 2 27.3333C2 34.7333 8.33674 40 15.0638 40C22.273 40 28.1275 34.3333 28.1275 27.3333V13.3556C31.0043 15.3552 34.4582 16.4281 38 16.4222V9.55556C38 9.55556 33.6837 9.75556 30.5612 6.26667Z" fill="white"/>
</svg>
