<svg width="32" height="37" viewBox="0 0 32 37" fill="none" xmlns="http://www.w3.org/2000/svg">
<path d="M25.3878 5.7551C23.993 4.1623 23.2243 2.11714 23.2245 0H16.9184V25.3061C16.8707 26.6759 16.2929 27.9736 15.3067 28.9255C14.3206 29.8774 13.0033 30.409 11.6327 30.4082C8.73469 30.4082 6.32653 28.0408 6.32653 25.102C6.32653 21.5918 9.71429 18.9592 13.2041 20.0408V13.5918C6.16327 12.6531 0 18.1224 0 25.102C0 31.898 5.63265 36.7347 11.6122 36.7347C18.0204 36.7347 23.2245 31.5306 23.2245 25.102V12.2653C25.7816 14.1017 28.8518 15.087 32 15.0816V8.77551C32 8.77551 28.1633 8.95918 25.3878 5.7551Z" fill="black"/>
</svg>
