<svg width="20" height="20" viewBox="0 0 20 20" fill="none" xmlns="http://www.w3.org/2000/svg">
<path fill-rule="evenodd" clip-rule="evenodd" d="M3 2C2.45228 2 2 2.45228 2 3V12.9986C2.0006 13.1752 2.04772 13.3485 2.13662 13.5011C2.2257 13.654 2.35355 13.7806 2.50726 13.8683C2.98705 14.1418 3.15427 14.7525 2.88075 15.2323C2.60722 15.7121 1.99654 15.8793 1.51674 15.6057C1.05714 15.3437 0.67485 14.965 0.408526 14.5079C0.142201 14.0508 0.00127858 13.5315 2.92063e-06 13.0024L0 13V3C0 1.34772 1.34772 0 3 0H13C13.5624 0 14.063 0.149816 14.4904 0.460107C14.8962 0.754676 15.1694 1.14623 15.374 1.514C15.6424 1.99667 15.4687 2.60554 14.986 2.87396C14.5033 3.14237 13.8945 2.96868 13.626 2.486C13.4886 2.23877 13.3868 2.13032 13.3156 2.07864C13.266 2.04268 13.1876 2 13 2H3ZM7.667 6C7.22488 6 6.80088 6.17563 6.48825 6.48825C6.17563 6.80088 6 7.22488 6 7.667V16.333C6 16.5519 6.04312 16.7687 6.12689 16.9709C6.21067 17.1732 6.33346 17.357 6.48825 17.5117C6.64305 17.6665 6.82682 17.7893 7.02907 17.8731C7.23132 17.9569 7.44808 18 7.667 18H16.333C16.5519 18 16.7687 17.9569 16.9709 17.8731C17.1732 17.7893 17.3569 17.6665 17.5117 17.5117C17.6665 17.3569 17.7893 17.1732 17.8731 16.9709C17.9569 16.7687 18 16.5519 18 16.333V7.667C18 7.44808 17.9569 7.23132 17.8731 7.02907C17.7893 6.82682 17.6665 6.64305 17.5117 6.48825C17.357 6.33346 17.1732 6.21067 16.9709 6.12689C16.7687 6.04312 16.5519 6 16.333 6H7.667ZM5.07404 5.07404C5.76174 4.38634 6.69445 4 7.667 4H16.333C16.8146 4 17.2914 4.09485 17.7363 4.27913C18.1812 4.46342 18.5854 4.73353 18.926 5.07404C19.2665 5.41455 19.5366 5.8188 19.7209 6.2637C19.9052 6.7086 20 7.18544 20 7.667V16.333C20 16.8146 19.9052 17.2914 19.7209 17.7363C19.5366 18.1812 19.2665 18.5854 18.926 18.926C18.5854 19.2665 18.1812 19.5366 17.7363 19.7209C17.2914 19.9052 16.8146 20 16.333 20H7.667C7.18544 20 6.7086 19.9052 6.2637 19.7209C5.8188 19.5366 5.41455 19.2665 5.07404 18.926C4.73353 18.5854 4.46342 18.1812 4.27913 17.7363C4.09485 17.2914 4 16.8146 4 16.333V7.667C4 6.69445 4.38634 5.76174 5.07404 5.07404Z" fill="#1D1B20"/>
</svg>
