<svg width="287" height="82" viewBox="0 0 287 82" fill="none" xmlns="http://www.w3.org/2000/svg">
<path d="M19.93 81.896C15.9193 81.896 12.4633 81.256 9.562 79.976C6.66067 78.6107 4.442 76.3067 2.906 73.064C1.37 69.8213 0.602 65.3413 0.602 59.624V55.272C2.30867 55.272 4.01533 55.272 5.722 55.272C7.42867 55.272 9.09267 55.272 10.714 55.272V60.264C10.714 64.2747 11.098 67.3893 11.866 69.608C12.634 71.7413 13.7433 73.2347 15.194 74.088C16.6447 74.9413 18.266 75.368 20.058 75.368C22.9593 75.368 25.3487 74.4293 27.226 72.552C29.1033 70.5893 30.042 67.0907 30.042 62.056C30.042 58.3867 29.4873 55.656 28.378 53.864C27.2687 51.9867 25.6047 50.4933 23.386 49.384C21.1673 48.2747 18.394 47.0373 15.066 45.672C12.25 44.4773 9.77533 43.0693 7.642 41.448C5.50867 39.8267 3.88733 37.736 2.778 35.176C1.66867 32.5307 1.114 29.2453 1.114 25.32C1.114 20.712 1.71133 16.9573 2.906 14.056C4.186 11.0693 6.234 8.85066 9.05 7.39999C11.866 5.94933 15.6633 5.224 20.442 5.224C26.5007 5.224 31.194 6.71733 34.522 9.70399C37.85 12.6053 39.514 16.7867 39.514 22.248V30.824C37.8927 30.824 36.2713 30.824 34.65 30.824C33.0287 30.824 31.4073 30.824 29.786 30.824V24.936C29.786 20.9253 29.018 17.9387 27.482 15.976C25.946 14.0133 23.5993 13.032 20.442 13.032C17.114 13.032 14.7247 14.0133 13.274 15.976C11.8233 17.9387 11.098 20.968 11.098 25.064C11.098 28.2213 11.6953 30.7387 12.89 32.616C14.17 34.408 15.7913 35.816 17.754 36.84C19.802 37.7787 21.9353 38.6747 24.154 39.528C27.994 40.9787 31.066 42.5147 33.37 44.136C35.7593 45.672 37.5087 47.6773 38.618 50.152C39.7273 52.6267 40.282 56.168 40.282 60.776C40.282 65.9813 39.4287 70.1627 37.722 73.32C36.0153 76.392 33.626 78.6107 30.554 79.976C27.5673 81.256 24.026 81.896 19.93 81.896ZM67.665 81.896C63.569 81.896 60.1557 81.384 57.425 80.36C54.7797 79.336 52.7743 77.416 51.409 74.6C50.129 71.784 49.489 67.816 49.489 62.696V33.896C49.489 27.5813 50.897 23.144 53.713 20.584C56.6143 17.9387 61.265 16.616 67.665 16.616C73.9797 16.616 78.545 17.896 81.361 20.456C84.2623 23.016 85.713 27.496 85.713 33.896V62.696C85.713 67.7307 85.073 71.656 83.793 74.472C82.513 77.288 80.5077 79.2507 77.777 80.36C75.1317 81.384 71.761 81.896 67.665 81.896ZM67.665 75.88C70.6517 75.88 72.785 75.112 74.065 73.576C75.345 72.04 75.985 69.2667 75.985 65.256V33.256C75.985 29.416 75.345 26.6853 74.065 25.064C72.8703 23.4427 70.737 22.632 67.665 22.632C64.6783 22.632 62.5023 23.4427 61.137 25.064C59.857 26.6 59.217 29.3307 59.217 33.256V65.256C59.217 69.2667 59.857 72.04 61.137 73.576C62.5023 75.112 64.6783 75.88 67.665 75.88ZM105.732 81L91.78 17.64H101.124L111.364 68.84L121.348 17.64H130.692L141.444 68.84L151.044 17.64H160.26L146.692 81H135.556L126.084 36.712L116.868 81H105.732ZM167.772 81V0.359993H176.86V23.272C177.969 21.1387 179.548 19.4747 181.596 18.28C183.644 17.0853 186.204 16.488 189.276 16.488C193.628 16.488 196.828 17.256 198.876 18.792C201.009 20.328 202.375 22.376 202.972 24.936C203.655 27.4107 203.996 30.184 203.996 33.256V81H194.268V34.28C194.268 33.0853 194.225 31.8907 194.14 30.696C194.055 29.416 193.756 28.264 193.244 27.24C192.732 26.1307 191.879 25.2347 190.684 24.552C189.575 23.8693 187.953 23.528 185.82 23.528C183.857 23.528 182.236 23.8267 180.956 24.424C179.761 25.0213 178.865 25.7467 178.268 26.6C177.756 27.368 177.5 28.0507 177.5 28.648V81H167.772ZM226.914 81.896C224.866 81.896 222.861 81.5973 220.898 81C218.935 80.488 217.271 79.2507 215.906 77.288C214.541 75.3253 213.858 72.2533 213.858 68.072V61.288C213.858 57.1067 215.095 53.736 217.57 51.176C220.13 48.616 223.757 46.312 228.45 44.264C231.266 42.984 233.57 41.832 235.362 40.808C237.154 39.6987 238.477 38.504 239.33 37.224C240.183 35.8587 240.61 34.0667 240.61 31.848V28.904C240.61 27.0267 240.226 25.6187 239.458 24.68C238.775 23.656 237.794 22.9307 236.514 22.504C235.319 22.0773 233.997 21.864 232.546 21.864C229.133 21.864 226.871 22.8453 225.762 24.808C224.738 26.6853 224.226 29.5867 224.226 33.512V38.888H215.394V32.616C215.394 29.4587 215.821 26.6853 216.674 24.296C217.527 21.8213 219.191 19.9013 221.666 18.536C224.141 17.0853 227.767 16.36 232.546 16.36C237.581 16.36 241.378 16.9147 243.938 18.024C246.498 19.048 248.205 20.584 249.058 22.632C249.997 24.68 250.466 27.24 250.466 30.312V81H240.738V73.32C239.799 76.136 238.007 78.2693 235.362 79.72C232.802 81.1707 229.986 81.896 226.914 81.896ZM230.754 75.368C234.253 75.368 236.727 74.1733 238.178 71.784C239.714 69.3093 240.482 65.9813 240.482 61.8V42.6C239.714 43.88 238.434 45.032 236.642 46.056C234.935 46.9947 233.186 47.976 231.394 49C228.834 50.536 226.829 52.1147 225.378 53.736C224.013 55.3573 223.33 57.6187 223.33 60.52V66.024C223.33 68.7547 223.714 70.8027 224.482 72.168C225.25 73.5333 226.189 74.4293 227.298 74.856C228.493 75.1973 229.645 75.368 230.754 75.368ZM276.873 81.256C274.996 81.256 273.204 81.0427 271.497 80.616C269.876 80.1893 268.468 79.5067 267.273 78.568C266.078 77.544 265.14 76.2213 264.457 74.6C263.774 72.8933 263.433 70.76 263.433 68.2V23.656H257.673V18.664L264.073 17.64L265.737 5.864H273.033V17.64H286.345V23.656H273.033V66.536C273.033 68.7547 273.46 70.632 274.313 72.168C275.166 73.704 276.958 74.472 279.689 74.472C280.884 74.472 282.164 74.4293 283.529 74.344C284.894 74.2587 285.833 74.1733 286.345 74.088V80.232C285.833 80.3173 284.638 80.5307 282.761 80.872C280.969 81.128 279.006 81.256 276.873 81.256Z" fill="#1D1B20"/>
</svg>
