<svg width="50" height="37" viewBox="0 0 50 37" fill="none" xmlns="http://www.w3.org/2000/svg">
<path d="M30.9358 9.63975C30.7348 10.1109 31.0708 10.1434 31.0708 10.1434C34.8085 11.643 38.7202 10.8575 40.9985 11.1147C41.2516 11.1433 41.7955 11.3411 41.1048 10.5955C40.8707 10.3428 33.1359 4.4848 30.9358 9.63975Z" fill="white"/>
<path d="M27.2811 10.4739C27.5955 10.0694 26.8983 9.59494 26.8983 9.59494C22.4587 8.36804 20.1316 8.94777 19.0332 13.0238C18.967 13.2697 18.5149 13.6533 19.6217 13.7521C19.9648 13.7827 23.9604 14.746 27.2811 10.4739Z" fill="white"/>
<path d="M18.2124 21.1456C18.5268 20.7411 19.0301 20.0548 16.1267 18.1226C8.66212 13.1549 6.40889 21.951 5.70678 25.9178C5.55598 26.7698 6.14187 28.7709 7.93581 28.5593C10.9275 28.2064 14.8917 25.4177 18.2124 21.1456Z" fill="white"/>
<path fill-rule="evenodd" clip-rule="evenodd" d="M44.4426 12.2513C43.2428 9.34629 42.1751 8.00283 39.5894 6.04344C41.4164 2.34308 42.7405 1.50349 48.0698 2.52868C49.622 2.82729 50.9389 1.14906 48.6812 0.598209C42.7205 -0.856071 40.6641 0.245602 37.7775 4.9586C32.4132 3.27418 30.3028 4.02144 28.142 8.37466C22.4123 6.40933 20.8186 7.41546 17.4674 12.4539C16.7301 13.5624 18.462 14.4624 19.1388 13.3801C21.8431 9.05505 23.401 8.61647 27.6344 10.3264C27.308 12.7938 26.5234 13.3228 25.889 13.8854C25.125 14.5628 23.6978 14.8651 22.8827 14.9363C21.3999 15.0658 15.8025 14.1362 14.784 14.0147C14.277 13.9542 12.2801 14.0104 12.1152 13.9444C11.9503 13.8783 7.94012 10.4504 7.29253 10.2314C6.857 10.084 6.11433 10.2035 5.68104 10.8104C5.07443 11.6599 4.65208 15.6029 4.65208 15.9444C4.65208 16.5093 4.43585 16.9013 4.18918 17.1471C2.36871 18.9608 1.24123 21.334 1.27753 23.13C1.3456 26.4975 2.53592 28.5589 4.01226 29.8563C4.14064 29.9692 4.47413 30.3243 4.38272 30.6895C4.2642 31.1629 4.35536 32.4043 4.26819 33.0266C4.11818 34.0977 3.38423 34.3169 2.10359 34.6375C1.81264 34.7103 1.12785 34.8989 0.775793 34.9933C-0.166164 35.2457 -0.512691 37.3015 1.26653 36.8247C1.26653 36.8247 3.78362 36.1457 4.63009 35.825C5.74387 35.4031 5.97043 34.0509 6.00191 33.9852C6.48749 32.9718 6.50439 15.5315 6.84477 13.6883C7.02224 12.7274 7.09773 12.4346 7.599 12.8973C8.10027 13.3601 9.04668 14.0307 9.117 14.11C9.19458 14.1975 9.29461 14.4066 9.15717 14.4431C9.01973 14.4796 8.88245 14.5167 8.10409 14.7253C6.50157 15.1547 7.39532 17.025 8.1279 16.8287L10.9209 16.0804C11.303 15.9514 11.5226 16.0173 11.7393 16.2046C14.1662 18.3024 17.4663 20.3625 17.589 20.8204C17.7117 21.2782 12.9374 27.2689 7.76351 28.6552C6.93309 28.8777 6.3777 30.9913 7.9582 30.6638C14.1417 29.3826 18.2336 23.5921 19.4647 21.5937C20.0079 20.7121 19.7506 19.8486 19.3493 19.5145C18.948 19.1803 16.027 16.8223 15.4587 16.5329C14.8905 16.2435 15.1161 15.9868 15.7057 16.1726C16.2953 16.3585 20.2495 17.0134 22.2745 17.0622C23.8551 17.1002 26.0417 16.5848 27.3658 15.5508C28.705 14.5049 29.3409 12.666 29.4831 11.5483C29.5566 10.9708 29.6971 11.0983 30.1454 11.2727C34.3036 12.8901 37.1796 13.1665 39.8508 12.6965C40.2813 12.6207 41.9986 13.0773 43.0609 13.5048C44.2811 13.9958 44.6901 12.8506 44.4426 12.2513ZM41.3901 10.5661C41.7468 10.9995 41.6477 11.0423 41.0729 10.8474C40.3072 10.704 39.8762 10.7083 39.1065 10.8345C35.7652 10.944 33.7961 10.5612 30.0969 9.07735C31.6672 4.68164 36.9559 5.17874 41.3901 10.5661ZM4.42739 27.1933C3.12148 25.4331 2.68703 22.1634 4.53468 19.9017L4.42739 27.1933Z" fill="#1D1B20"/>
</svg>
