<svg width="387" height="174" viewBox="0 0 387 174" fill="none" xmlns="http://www.w3.org/2000/svg">
<mask id="path-1-outside-1_7_707" maskUnits="userSpaceOnUse" x="106.076" y="87.3477" width="281" height="86" fill="black">
<rect fill="white" x="106.076" y="87.3477" width="281" height="86"/>
<path d="M126.366 171.116C122.782 171.116 119.624 170.476 116.894 169.196C114.248 167.83 112.2 165.569 110.75 162.412C109.299 159.169 108.574 154.689 108.574 148.972V144.876C109.598 144.876 110.622 144.876 111.646 144.876C112.755 144.876 113.779 144.876 114.718 144.876V149.356C114.718 153.878 115.187 157.42 116.126 159.98C117.15 162.54 118.558 164.332 120.35 165.356C122.142 166.38 124.19 166.892 126.494 166.892C130.078 166.892 133.022 165.782 135.326 163.564C137.715 161.26 138.91 157.164 138.91 151.276C138.91 147.35 138.312 144.364 137.118 142.316C136.008 140.268 134.302 138.646 131.998 137.452C129.694 136.257 126.878 135.02 123.55 133.74C120.819 132.63 118.344 131.35 116.126 129.9C113.907 128.364 112.158 126.358 110.878 123.884C109.598 121.324 108.958 118.081 108.958 114.156C108.958 109.804 109.555 106.177 110.75 103.276C111.944 100.374 113.864 98.241 116.51 96.8757C119.155 95.425 122.611 94.6997 126.878 94.6997C132.424 94.6997 136.734 96.1503 139.806 99.0517C142.963 101.868 144.542 105.921 144.542 111.212V119.404C143.518 119.404 142.494 119.404 141.47 119.404C140.531 119.404 139.55 119.404 138.526 119.404V112.62C138.526 108.353 137.502 105.11 135.454 102.892C133.491 100.673 130.632 99.5637 126.878 99.5637C122.782 99.5637 119.795 100.758 117.918 103.148C116.04 105.537 115.102 109.121 115.102 113.9C115.102 117.398 115.784 120.172 117.15 122.22C118.515 124.182 120.222 125.718 122.27 126.828C124.403 127.937 126.664 128.961 129.054 129.9C132.894 131.35 136.008 132.886 138.398 134.508C140.787 136.044 142.536 138.049 143.646 140.524C144.755 142.913 145.31 146.284 145.31 150.636C145.31 155.756 144.499 159.809 142.878 162.796C141.256 165.782 139.038 167.916 136.222 169.196C133.406 170.476 130.12 171.116 126.366 171.116ZM172.976 171.244C169.05 171.244 165.85 170.732 163.376 169.708C160.901 168.598 159.066 166.721 157.872 164.076C156.762 161.43 156.208 157.846 156.208 153.324V122.988C156.208 116.929 157.445 112.577 159.92 109.932C162.48 107.286 166.832 105.964 172.976 105.964C179.12 105.964 183.429 107.286 185.904 109.932C188.378 112.492 189.616 116.844 189.616 122.988V153.324C189.616 157.761 189.061 161.302 187.952 163.948C186.842 166.593 185.05 168.47 182.576 169.58C180.186 170.689 176.986 171.244 172.976 171.244ZM172.976 167.148C176.816 167.148 179.504 166.209 181.04 164.332C182.661 162.454 183.472 159.041 183.472 154.092V122.988C183.472 118.38 182.704 115.094 181.168 113.132C179.632 111.084 176.901 110.06 172.976 110.06C169.136 110.06 166.405 111.041 164.784 113.004C163.162 114.881 162.352 118.209 162.352 122.988V154.092C162.352 158.956 163.162 162.369 164.784 164.332C166.405 166.209 169.136 167.148 172.976 167.148ZM211.204 170.348L196.74 106.988H202.756L214.66 162.156L226.308 106.988H232.196L244.356 162.156L255.748 106.988H261.636L247.684 170.348H240.644L229.252 119.404L218.244 170.348H211.204ZM270.747 170.348V89.7076H276.635V111.852C277.744 109.974 279.323 108.524 281.371 107.5C283.419 106.476 286.021 105.964 289.179 105.964C293.787 105.964 297.157 106.774 299.291 108.396C301.424 109.932 302.789 111.98 303.387 114.54C303.984 117.1 304.283 119.83 304.283 122.732V170.348H298.139V123.756C298.139 122.39 298.096 120.94 298.011 119.404C297.925 117.868 297.541 116.417 296.859 115.052C296.261 113.686 295.237 112.577 293.787 111.724C292.336 110.87 290.245 110.444 287.515 110.444C284.955 110.444 282.864 110.87 281.243 111.724C279.707 112.492 278.597 113.43 277.915 114.54C277.232 115.564 276.891 116.46 276.891 117.228V170.348H270.747ZM329.142 171.244C327.264 171.244 325.302 170.988 323.254 170.476C321.291 169.964 319.584 168.684 318.134 166.636C316.683 164.588 315.958 161.345 315.958 156.908V151.404C315.958 147.052 317.28 143.553 319.926 140.908C322.571 138.262 326.112 135.873 330.55 133.74C333.451 132.289 335.883 130.966 337.846 129.772C339.808 128.577 341.259 127.254 342.198 125.804C343.222 124.353 343.734 122.518 343.734 120.3V117.74C343.734 115.436 343.264 113.729 342.326 112.62C341.387 111.425 340.107 110.614 338.486 110.188C336.95 109.761 335.328 109.548 333.622 109.548C329.355 109.548 326.539 110.657 325.174 112.876C323.808 115.094 323.126 118.294 323.126 122.476V127.852H317.622V121.964C317.622 118.806 318.006 116.033 318.774 113.644C319.627 111.169 321.206 109.249 323.51 107.884C325.814 106.433 329.184 105.708 333.622 105.708C338.4 105.708 341.942 106.305 344.246 107.5C346.55 108.609 348.043 110.188 348.726 112.236C349.494 114.198 349.878 116.502 349.878 119.148V170.348H343.862L343.734 162.156C342.624 165.228 340.704 167.532 337.974 169.068C335.243 170.518 332.299 171.244 329.142 171.244ZM331.19 166.892C335.542 166.892 338.699 165.441 340.662 162.54C342.624 159.553 343.606 155.585 343.606 150.636V129.388C342.667 130.924 341.088 132.332 338.87 133.612C336.736 134.806 334.518 136.001 332.214 137.196C328.971 139.073 326.454 140.993 324.662 142.956C322.87 144.918 321.974 147.692 321.974 151.276V155.884C321.974 159.297 322.443 161.814 323.382 163.436C324.406 164.972 325.643 165.953 327.094 166.38C328.544 166.721 329.91 166.892 331.19 166.892ZM375.66 170.476C373.868 170.476 372.246 170.262 370.796 169.836C369.345 169.324 368.108 168.598 367.084 167.66C366.145 166.636 365.42 165.356 364.908 163.82C364.481 162.284 364.268 160.406 364.268 158.188V111.084H358.636V107.756L364.524 106.988L365.804 95.0837H370.284V106.988H384.492V111.084H370.284V157.164C370.284 159.724 370.753 161.857 371.692 163.564C372.63 165.185 374.55 165.996 377.452 165.996C378.732 165.996 380.054 165.953 381.42 165.868C382.785 165.782 383.809 165.697 384.492 165.612V169.708C383.724 169.793 382.529 169.964 380.908 170.22C379.286 170.39 377.537 170.476 375.66 170.476Z"/>
</mask>
<path d="M126.366 171.116C122.782 171.116 119.624 170.476 116.894 169.196C114.248 167.83 112.2 165.569 110.75 162.412C109.299 159.169 108.574 154.689 108.574 148.972V144.876C109.598 144.876 110.622 144.876 111.646 144.876C112.755 144.876 113.779 144.876 114.718 144.876V149.356C114.718 153.878 115.187 157.42 116.126 159.98C117.15 162.54 118.558 164.332 120.35 165.356C122.142 166.38 124.19 166.892 126.494 166.892C130.078 166.892 133.022 165.782 135.326 163.564C137.715 161.26 138.91 157.164 138.91 151.276C138.91 147.35 138.312 144.364 137.118 142.316C136.008 140.268 134.302 138.646 131.998 137.452C129.694 136.257 126.878 135.02 123.55 133.74C120.819 132.63 118.344 131.35 116.126 129.9C113.907 128.364 112.158 126.358 110.878 123.884C109.598 121.324 108.958 118.081 108.958 114.156C108.958 109.804 109.555 106.177 110.75 103.276C111.944 100.374 113.864 98.241 116.51 96.8757C119.155 95.425 122.611 94.6997 126.878 94.6997C132.424 94.6997 136.734 96.1503 139.806 99.0517C142.963 101.868 144.542 105.921 144.542 111.212V119.404C143.518 119.404 142.494 119.404 141.47 119.404C140.531 119.404 139.55 119.404 138.526 119.404V112.62C138.526 108.353 137.502 105.11 135.454 102.892C133.491 100.673 130.632 99.5637 126.878 99.5637C122.782 99.5637 119.795 100.758 117.918 103.148C116.04 105.537 115.102 109.121 115.102 113.9C115.102 117.398 115.784 120.172 117.15 122.22C118.515 124.182 120.222 125.718 122.27 126.828C124.403 127.937 126.664 128.961 129.054 129.9C132.894 131.35 136.008 132.886 138.398 134.508C140.787 136.044 142.536 138.049 143.646 140.524C144.755 142.913 145.31 146.284 145.31 150.636C145.31 155.756 144.499 159.809 142.878 162.796C141.256 165.782 139.038 167.916 136.222 169.196C133.406 170.476 130.12 171.116 126.366 171.116ZM172.976 171.244C169.05 171.244 165.85 170.732 163.376 169.708C160.901 168.598 159.066 166.721 157.872 164.076C156.762 161.43 156.208 157.846 156.208 153.324V122.988C156.208 116.929 157.445 112.577 159.92 109.932C162.48 107.286 166.832 105.964 172.976 105.964C179.12 105.964 183.429 107.286 185.904 109.932C188.378 112.492 189.616 116.844 189.616 122.988V153.324C189.616 157.761 189.061 161.302 187.952 163.948C186.842 166.593 185.05 168.47 182.576 169.58C180.186 170.689 176.986 171.244 172.976 171.244ZM172.976 167.148C176.816 167.148 179.504 166.209 181.04 164.332C182.661 162.454 183.472 159.041 183.472 154.092V122.988C183.472 118.38 182.704 115.094 181.168 113.132C179.632 111.084 176.901 110.06 172.976 110.06C169.136 110.06 166.405 111.041 164.784 113.004C163.162 114.881 162.352 118.209 162.352 122.988V154.092C162.352 158.956 163.162 162.369 164.784 164.332C166.405 166.209 169.136 167.148 172.976 167.148ZM211.204 170.348L196.74 106.988H202.756L214.66 162.156L226.308 106.988H232.196L244.356 162.156L255.748 106.988H261.636L247.684 170.348H240.644L229.252 119.404L218.244 170.348H211.204ZM270.747 170.348V89.7076H276.635V111.852C277.744 109.974 279.323 108.524 281.371 107.5C283.419 106.476 286.021 105.964 289.179 105.964C293.787 105.964 297.157 106.774 299.291 108.396C301.424 109.932 302.789 111.98 303.387 114.54C303.984 117.1 304.283 119.83 304.283 122.732V170.348H298.139V123.756C298.139 122.39 298.096 120.94 298.011 119.404C297.925 117.868 297.541 116.417 296.859 115.052C296.261 113.686 295.237 112.577 293.787 111.724C292.336 110.87 290.245 110.444 287.515 110.444C284.955 110.444 282.864 110.87 281.243 111.724C279.707 112.492 278.597 113.43 277.915 114.54C277.232 115.564 276.891 116.46 276.891 117.228V170.348H270.747ZM329.142 171.244C327.264 171.244 325.302 170.988 323.254 170.476C321.291 169.964 319.584 168.684 318.134 166.636C316.683 164.588 315.958 161.345 315.958 156.908V151.404C315.958 147.052 317.28 143.553 319.926 140.908C322.571 138.262 326.112 135.873 330.55 133.74C333.451 132.289 335.883 130.966 337.846 129.772C339.808 128.577 341.259 127.254 342.198 125.804C343.222 124.353 343.734 122.518 343.734 120.3V117.74C343.734 115.436 343.264 113.729 342.326 112.62C341.387 111.425 340.107 110.614 338.486 110.188C336.95 109.761 335.328 109.548 333.622 109.548C329.355 109.548 326.539 110.657 325.174 112.876C323.808 115.094 323.126 118.294 323.126 122.476V127.852H317.622V121.964C317.622 118.806 318.006 116.033 318.774 113.644C319.627 111.169 321.206 109.249 323.51 107.884C325.814 106.433 329.184 105.708 333.622 105.708C338.4 105.708 341.942 106.305 344.246 107.5C346.55 108.609 348.043 110.188 348.726 112.236C349.494 114.198 349.878 116.502 349.878 119.148V170.348H343.862L343.734 162.156C342.624 165.228 340.704 167.532 337.974 169.068C335.243 170.518 332.299 171.244 329.142 171.244ZM331.19 166.892C335.542 166.892 338.699 165.441 340.662 162.54C342.624 159.553 343.606 155.585 343.606 150.636V129.388C342.667 130.924 341.088 132.332 338.87 133.612C336.736 134.806 334.518 136.001 332.214 137.196C328.971 139.073 326.454 140.993 324.662 142.956C322.87 144.918 321.974 147.692 321.974 151.276V155.884C321.974 159.297 322.443 161.814 323.382 163.436C324.406 164.972 325.643 165.953 327.094 166.38C328.544 166.721 329.91 166.892 331.19 166.892ZM375.66 170.476C373.868 170.476 372.246 170.262 370.796 169.836C369.345 169.324 368.108 168.598 367.084 167.66C366.145 166.636 365.42 165.356 364.908 163.82C364.481 162.284 364.268 160.406 364.268 158.188V111.084H358.636V107.756L364.524 106.988L365.804 95.0837H370.284V106.988H384.492V111.084H370.284V157.164C370.284 159.724 370.753 161.857 371.692 163.564C372.63 165.185 374.55 165.996 377.452 165.996C378.732 165.996 380.054 165.953 381.42 165.868C382.785 165.782 383.809 165.697 384.492 165.612V169.708C383.724 169.793 382.529 169.964 380.908 170.22C379.286 170.39 377.537 170.476 375.66 170.476Z" fill="#1D1B20"/>
<path d="M144.937 45.1629C143.995 47.3704 145.569 47.5225 145.569 47.5225C163.08 54.5483 181.407 50.8684 192.081 52.0732C193.267 52.207 195.815 53.134 192.579 49.6407C191.482 48.4569 155.244 21.0116 144.937 45.1629Z" fill="white"/>
<path d="M127.814 49.0708C129.287 47.1759 126.021 44.953 126.021 44.953C105.221 39.2048 94.3179 41.921 89.1721 61.0173C88.8616 62.1696 86.7437 63.9669 91.9292 64.4295C93.5364 64.5729 112.256 69.086 127.814 49.0708Z" fill="white"/>
<path d="M85.3263 99.0687C86.7993 97.1737 89.1575 93.9582 75.555 84.9058C40.5826 61.6318 30.0261 102.842 26.7367 121.427C26.0302 125.418 28.7751 134.794 37.1799 133.802C51.1962 132.149 69.7687 119.084 85.3263 99.0687Z" fill="white"/>
<path fill-rule="evenodd" clip-rule="evenodd" d="M208.217 57.3981C202.596 43.7881 197.593 37.4938 185.479 28.3139C194.039 10.9775 200.242 7.04397 225.21 11.8471C232.483 13.246 238.653 5.38344 228.075 2.80265C200.149 -4.01075 190.514 1.15066 176.99 23.2314C151.858 15.3398 141.971 18.8407 131.847 39.2359C105.003 30.0282 97.5368 34.742 81.8362 58.3474C78.3819 63.5409 86.496 67.7574 89.6665 62.6869C102.337 42.4236 109.635 40.3688 129.469 48.3799C127.94 59.9398 124.264 62.4182 121.292 65.054C117.713 68.2278 111.026 69.644 107.207 69.9776C100.26 70.5844 74.0358 66.229 69.264 65.6598C66.889 65.3766 57.5331 65.64 56.7605 65.3305C55.9878 65.021 37.2 48.961 34.166 47.9346C32.1255 47.2444 28.6461 47.8043 26.6161 50.6474C23.7741 54.6277 21.7953 73.1007 21.7953 74.7004C21.7953 77.3474 20.7823 79.184 19.6266 80.3354C11.0976 88.8326 5.81526 99.9512 5.98534 108.366C6.30425 124.143 11.881 133.8 18.7977 139.879C19.3992 140.408 20.9616 142.072 20.5333 143.782C19.9781 146 20.4052 151.816 19.9968 154.732C19.294 159.75 15.8554 160.777 9.85548 162.279C8.49235 162.62 5.28405 163.504 3.63465 163.946C-0.77849 165.129 -2.402 174.76 5.9338 172.527C5.9338 172.527 17.7265 169.345 21.6923 167.843C26.9104 165.866 27.9719 159.531 28.1194 159.223C30.3944 154.475 30.4735 72.766 32.0682 64.1308C32.8997 59.6286 33.2534 58.257 35.6019 60.425C37.9503 62.593 42.3843 65.7349 42.7138 66.1065C43.0773 66.5164 43.5459 67.496 42.902 67.667C42.2581 67.838 41.6149 68.0118 37.9682 68.989C30.4603 71.0007 34.6476 79.7634 38.0798 78.8438L51.165 75.3376C52.9555 74.7332 53.9843 75.042 54.9995 75.9195C66.3697 85.748 81.831 95.3999 82.4058 97.545C82.9806 99.6901 60.6124 127.757 36.3726 134.252C32.482 135.294 29.88 145.197 37.2847 143.662C66.2547 137.66 85.4255 110.531 91.1937 101.168C93.7384 97.0375 92.5328 92.9922 90.6527 91.4267C88.7726 89.8613 75.0877 78.8138 72.4253 77.458C69.7629 76.1021 70.82 74.8992 73.5824 75.77C76.3447 76.6408 94.8702 79.7091 104.358 79.9375C111.763 80.1158 122.007 77.701 128.211 72.8564C134.485 67.9565 137.464 59.3411 138.13 54.1045C138.475 51.3989 139.133 51.9965 141.233 52.8133C160.715 60.3908 174.189 61.6861 186.704 59.4838C188.721 59.129 196.767 61.2682 201.743 63.271C207.46 65.5715 209.376 60.2059 208.217 57.3981ZM193.916 49.5029C195.587 51.5332 195.122 51.7339 192.43 50.8208C188.842 50.1491 186.823 50.169 183.217 50.7603C167.563 51.2734 158.337 49.4799 141.006 42.528C148.363 21.9338 173.141 24.2628 193.916 49.5029ZM20.7426 127.403C14.6244 119.156 12.5889 103.837 21.2453 93.2408L20.7426 127.403Z" fill="#1D1B20"/>
</svg>
